<?xml version="1.0" encoding="utf-8"?>
<!-- Generator: Adobe Illustrator 23.0.1, SVG Export Plug-In . SVG Version: 6.00 Build 0)  -->
<svg version="1.1" xmlns="http://www.w3.org/2000/svg" xmlns:xlink="http://www.w3.org/1999/xlink" x="0px" y="0px"
	 viewBox="0 0 192 192" enable-background="new 0 0 192 192" xml:space="preserve">
<g id="圖層_20" display="none">
	<path display="inline" opacity="0.5" fill="#257885" d="M110.53,11.13L44.26,77.39c-10.28,10.28-10.28,26.94,0,37.21l66.27,66.27
		c16.58,16.58,44.92,4.84,44.92-18.61V29.73C155.45,6.29,127.1-5.45,110.53,11.13z"/>
</g>
<g id="通話按鈕" display="none">
	<g display="inline">
		<g>
			<g>
				<path fill="#257885" d="M132.13,189.41C59.73,189.41,0.82,130.5,0.82,58.1c0-7.4,0.62-14.8,1.84-22.01
					c1.15-6.79,7.55-11.37,14.39-10.22c6.8,1.15,11.37,7.59,10.22,14.39c-0.99,5.83-1.49,11.84-1.49,17.84
					c0,58.64,47.71,106.34,106.35,106.34c6.73,0,13.47-0.63,20.03-1.88c6.75-1.29,13.31,3.16,14.6,9.93
					c1.29,6.77-3.16,13.3-9.93,14.6C148.74,188.63,140.43,189.41,132.13,189.41z"/>
			</g>
			<g>
				<ellipse fill="#257885" cx="41.46" cy="40.62" rx="40.39" ry="38.03"/>
			</g>
			<g>
				<g>
					<path fill="#257885" d="M189.97,39.09L157.05,7.07c-1.36-1.32-3.63-0.36-3.63,1.54v64.03c0,1.89,2.28,2.86,3.63,1.54
						l32.93-32.02C190.84,41.32,190.84,39.93,189.97,39.09z"/>
				</g>
				<g>
					<path fill="#257885" d="M118.14,54.53V26.72c0-2.01,1.63-3.64,3.64-3.64h32.79c2.01,0,3.64,1.63,3.64,3.64v27.82
						c0,2.01-1.63,3.64-3.64,3.64h-32.79C119.78,58.18,118.14,56.54,118.14,54.53z"/>
				</g>
			</g>
			<g>
				<ellipse fill="#257885" cx="150.79" cy="149.96" rx="40.39" ry="38.03"/>
			</g>
		</g>
	</g>
</g>
<g id="聽歌點歌" display="none">
	<g display="inline">
		<g>
			<path fill="#257885" d="M168.46,103.17h-9.97c4.87-9.69,7.41-20.38,7.41-31.32c0-38.54-31.36-69.9-69.9-69.9
				S26.1,33.3,26.1,71.84c0,10.94,2.55,21.63,7.41,31.32h-9.97c-8.32,0-15.09,6.77-15.09,15.09v48.97c0,8.32,6.77,15.09,15.09,15.09
				h10.99c0.02,3.1,0.7,7.39,4.95,7.72h0c0.14,0.01,0.28,0.02,0.42,0.02c4.15,0,5.9-4.93,6.86-7.61l0.05-0.13h97.47l0.05,0.13
				c0.96,2.69,2.71,7.61,6.86,7.61c0.14,0,0.28,0,0.42-0.02h0c4.26-0.33,4.93-4.62,4.95-7.72h11.9c8.32,0,15.09-6.77,15.09-15.09
				v-48.97C183.55,109.94,176.78,103.17,168.46,103.17z M33.65,71.84C33.65,37.47,61.62,9.5,96,9.5s62.35,27.97,62.35,62.35
				c0,11.06-2.93,21.82-8.47,31.32H76.09c-1.93-1.03-4.33-2.74-6.36-5.5c-2.39-3.23-3.26-6.53-3.57-8.72
				c-0.29-2.07-2.19-3.51-4.27-3.22c-1.89,0.27-3.25,1.89-3.25,3.74c0,0.17,0.01,0.35,0.04,0.53c0.03,0.19,0.06,0.38,0.09,0.58
				c0.5,3.05,1.76,7.36,4.89,11.59c0.26,0.35,0.53,0.67,0.8,1h-4.34c-4.39-5.7-5.68-11.67-6.05-14.91
				c-0.24-2.07-2.11-3.57-4.18-3.33c-1.93,0.22-3.35,1.85-3.35,3.75c0,0.14,0.01,0.29,0.02,0.43c0.36,3.18,1.45,8.47,4.55,14.05
				h-8.98C36.59,93.66,33.65,82.9,33.65,71.84z M174.73,167.23c0,3.46-2.81,6.27-6.27,6.27H23.54c-3.46,0-6.27-2.81-6.27-6.27
				v-48.97c0-3.46,2.81-6.27,6.27-6.27h144.91c3.46,0,6.27,2.81,6.27,6.27V167.23z"/>
		</g>
		<g>
			<path fill="#257885" d="M112.49,29.84c0.32,0.04,0.66,0.08,1.03,0.14c3.81,0.58,10.13,2.32,15.83,7.54
				c6.18,5.66,8.35,12.42,9.08,15.95c0.37,1.78,1.94,3,3.7,3c0.26,0,0.52-0.03,0.78-0.08c1.78-0.37,3.01-1.94,3.01-3.7
				c0-0.26-0.03-0.52-0.08-0.78c-0.04-0.2-0.09-0.4-0.14-0.62c-1.04-4.55-3.85-12.58-11.24-19.35c-7.82-7.17-16.58-9.1-21.11-9.62
				c-2.08-0.23-3.95,1.25-4.18,3.33c-0.02,0.15-0.02,0.29-0.02,0.43C109.14,27.99,110.56,29.62,112.49,29.84z"/>
		</g>
		<g>
			<path fill="#257885" d="M111.6,40.14c0.14,0.04,0.29,0.07,0.44,0.11c2.29,0.61,5.44,1.86,8.46,4.42
				c0.19,0.16,0.37,0.32,0.56,0.49c0,0,0,0,0,0c3.43,3.11,5.14,6.64,5.97,9.05c0.54,1.57,2,2.55,3.57,2.55
				c0.41,0,0.82-0.07,1.23-0.21c1.57-0.54,2.55-2,2.55-3.57c0-0.41-0.07-0.82-0.21-1.23c-0.06-0.19-0.13-0.38-0.2-0.57
				c-1.17-3.17-3.41-7.54-7.63-11.44c-0.07-0.06-0.13-0.12-0.2-0.18v0c-4.56-4.13-9.44-5.96-12.74-6.76
				c-2.02-0.49-4.07,0.75-4.57,2.77c-0.07,0.3-0.11,0.6-0.11,0.9C108.72,38.17,109.87,39.72,111.6,40.14z"/>
		</g>
		<g>
			<path fill="#257885" d="M96,94.49c12.48,0,22.64-10.16,22.64-22.64S108.48,49.2,96,49.2S73.36,59.36,73.36,71.84
				S83.52,94.49,96,94.49z M96,56.76c8.32,0,15.09,6.77,15.09,15.08c0,8.32-6.77,15.09-15.09,15.09s-15.09-6.77-15.09-15.09
				C80.91,63.53,87.68,56.76,96,56.76z"/>
		</g>
		<g>
			<path fill="#257885" d="M96,83.17c6.24,0,11.32-5.08,11.32-11.32c0-6.24-5.08-11.32-11.32-11.32S84.68,65.6,84.68,71.84
				C84.68,78.09,89.76,83.17,96,83.17z M96,68.08c2.08,0,3.76,1.69,3.76,3.76c0,2.08-1.69,3.76-3.76,3.76s-3.76-1.69-3.76-3.76
				C92.24,69.77,93.92,68.08,96,68.08z"/>
		</g>
		<g>
			<path fill="#257885" d="M134.23,135.01H35.69c-2.51,0-4.56,2.04-4.56,4.56v3.18c0,2.51,2.04,4.56,4.56,4.56h98.54
				c2.51,0,4.56-2.04,4.56-4.56v-3.18C138.79,137.05,136.75,135.01,134.23,135.01z M135.01,142.74c0,0.43-0.35,0.78-0.78,0.78H35.69
				c-0.43,0-0.78-0.35-0.78-0.78v-3.18c0-0.43,0.35-0.78,0.78-0.78h98.54c0.43,0,0.78,0.35,0.78,0.78V142.74z"/>
		</g>
		<g>
			<path fill="#257885" d="M154.78,134.55c-3.48,0-6.31,2.83-6.31,6.31s2.83,6.31,6.31,6.31c3.48,0,6.31-2.83,6.31-6.31
				S158.25,134.55,154.78,134.55z M154.78,143.38c-1.39,0-2.53-1.13-2.53-2.53c0-1.39,1.13-2.53,2.53-2.53
				c1.39,0,2.53,1.13,2.53,2.53C157.3,142.25,156.17,143.38,154.78,143.38z"/>
		</g>
	</g>
</g>
<g id="安心出門" display="none">
	<g display="inline">
		<g>
			<g>
				<g>
					<path fill="#257885" d="M185.85,100.71c-0.96,0-1.92-0.31-2.74-0.95L96,31.43L8.89,99.76c-1.93,1.51-4.72,1.18-6.23-0.75
						c-1.51-1.93-1.18-4.72,0.75-6.23l89.85-70.48c1.61-1.26,3.87-1.26,5.48,0l89.85,70.48c1.93,1.51,2.27,4.3,0.75,6.23
						C188.47,100.12,187.17,100.71,185.85,100.71z"/>
				</g>
			</g>
		</g>
		<g>
			<g>
				<g>
					<path fill="#257885" d="M150.97,170.65H41.03c-10.95,0-19.2-5.03-19.2-11.7v-55.99c0-2.16,1.75-3.92,3.92-3.92
						s3.92,1.75,3.92,3.92v55.99c0,0.96,4.03,3.87,11.37,3.87h109.95c7.34,0,11.37-2.91,11.37-3.87v-55.99
						c0-2.16,1.75-3.92,3.92-3.92s3.92,1.75,3.92,3.92v55.99C170.18,165.62,161.92,170.65,150.97,170.65z"/>
				</g>
			</g>
		</g>
		<g>
			<g>
				<path fill="#257885" d="M96.01,148.19l-33.53-33.53c-9.05-9.05-9.05-23.77,0-32.82c9.04-9.05,23.77-9.05,32.82,0l0.71,0.71
					l0.71-0.71c4.37-4.37,10.2-6.78,16.41-6.78c6.21,0,12.04,2.41,16.41,6.77l0,0c4.37,4.37,6.78,10.2,6.78,16.41
					c0,6.21-2.41,12.04-6.78,16.41L96.01,148.19z M78.89,85.78c-3.2,0-6.39,1.22-8.83,3.65c-4.87,4.87-4.87,12.79,0,17.66
					l25.95,25.95l25.95-25.95c2.35-2.35,3.64-5.48,3.64-8.83c0-3.35-1.29-6.48-3.64-8.83v0c-4.69-4.69-12.96-4.68-17.65,0
					l-8.29,8.29l-8.29-8.29C85.29,86.99,82.09,85.78,78.89,85.78z"/>
			</g>
		</g>
	</g>
</g>
<g id="生活應用" display="none">
	<g display="inline">
		<g>
			<path fill="#257885" d="M61.72,1.47H31.15C17.01,1.47,4.7,11.54,1.89,25.41c-0.65,3.23,1.43,6.38,4.67,7.04
				c3.23,0.66,6.38-1.44,7.04-4.67c1.69-8.32,9.07-14.37,17.55-14.37h30.57c9.88,0,17.91,8.03,17.91,17.91v30.57
				c0,9.88-8.03,17.91-17.91,17.91H31.15c-9.88,0-17.91-8.03-17.91-17.91v-7.63c0-3.3-2.67-5.97-5.97-5.97S1.3,50.96,1.3,54.26v7.63
				c0,16.46,13.39,29.85,29.85,29.85h30.57c16.46,0,29.85-13.39,29.85-29.85V31.32C91.57,14.86,78.18,1.47,61.72,1.47z"/>
		</g>
		<g>
			<path fill="#257885" d="M160.85,1.47h-30.57c-16.46,0-29.85,13.39-29.85,29.85v30.57c0,16.46,13.39,29.85,29.85,29.85h30.57
				c16.46,0,29.85-13.39,29.85-29.85V31.32C190.7,14.86,177.31,1.47,160.85,1.47z M178.76,61.89c0,9.88-8.03,17.91-17.91,17.91
				h-30.57c-9.88,0-17.91-8.03-17.91-17.91V31.32c0-9.88,8.03-17.91,17.91-17.91h30.57c9.88,0,17.91,8.03,17.91,17.91V61.89z"/>
		</g>
		<g>
			<path fill="#257885" d="M158.5,21.73h-12.28c-2.2,0-3.98,1.78-3.98,3.98s1.78,3.98,3.98,3.98h12.28c3.29,0,5.96,2.68,5.96,5.97
				v11.81c0,2.2,1.78,3.98,3.98,3.98s3.98-1.78,3.98-3.98V35.66C172.43,27.98,166.18,21.73,158.5,21.73z"/>
		</g>
		<g>
			<path fill="#257885" d="M147.56,64.39h-12.29c-3.29,0-5.96-2.68-5.96-5.96V46.6c0-2.2-1.78-3.98-3.98-3.98
				c-2.2,0-3.98,1.78-3.98,3.98v11.82c0,7.68,6.25,13.92,13.92,13.92h12.29c2.2,0,3.98-1.78,3.98-3.98S149.75,64.39,147.56,64.39z"
				/>
		</g>
		<g>
			<path fill="#257885" d="M46.43,100.26c-24.89,0-45.13,20.25-45.13,45.13c0,24.89,20.25,45.13,45.13,45.13
				s45.13-20.25,45.13-45.13C91.57,120.51,71.32,100.26,46.43,100.26z M46.43,178.59c-18.3,0-33.19-14.89-33.19-33.19
				c0-18.3,14.89-33.19,33.19-33.19s33.19,14.89,33.19,33.19C79.63,163.7,64.74,178.59,46.43,178.59z"/>
		</g>
		<g>
			<path fill="#257885" d="M160.85,100.26h-30.57c-16.46,0-29.85,13.39-29.85,29.85v30.57c0,16.46,13.39,29.85,29.85,29.85h30.57
				c16.46,0,29.85-13.39,29.85-29.85v-30.57C190.7,113.65,177.31,100.26,160.85,100.26z M178.76,160.68
				c0,9.88-8.03,17.91-17.91,17.91h-30.57c-9.88,0-17.91-8.03-17.91-17.91v-30.57c0-9.88,8.03-17.91,17.91-17.91h30.57
				c9.88,0,17.91,8.03,17.91,17.91V160.68z"/>
		</g>
		<g>
			<path fill="#257885" d="M151.5,133.51l-5.6,5.68l-5.68-5.6c-3.43-3.39-9.01-3.35-12.4,0.09c-3.39,3.43-3.35,9.01,0.09,12.4
				l5.68,5.6l12.49,12.31l12.31-12.49l5.6-5.68c3.39-3.43,3.35-9.01-0.09-12.4C160.47,130.04,154.89,130.08,151.5,133.51z"/>
		</g>
		<g>
			<path fill="#257885" d="M46.43,25.71c-3.52,0-6.4,2.88-6.4,6.4v8.09h-8.09c-3.52,0-6.4,2.88-6.4,6.4c0,3.52,2.88,6.4,6.4,6.4
				h8.09v8.09c0,3.52,2.88,6.4,6.4,6.4c3.52,0,6.4-2.88,6.4-6.4V53h8.09c3.52,0,6.4-2.88,6.4-6.4c0-3.52-2.88-6.4-6.4-6.4h-8.09
				v-8.09C52.83,28.59,49.95,25.71,46.43,25.71z"/>
		</g>
		<g>
			<path fill="#257885" d="M62.03,141.49l-20.45-11.81c-3-1.73-6.76,0.43-6.76,3.9v23.62c0,3.47,3.76,5.64,6.76,3.9l20.45-11.81
				C65.04,147.57,65.04,143.23,62.03,141.49z"/>
		</g>
	</g>
</g>
<g id="生活服務" display="none">
	<g display="inline">
		<g>
			<path fill="#257885" d="M164.49,134.03c0-0.04,0-0.07,0-0.11V97.39c0-6.82-4.92-12.58-11.43-13.4c-3.74-0.46-7.5,0.69-10.32,3.17
				c-2.83,2.49-4.45,6.07-4.45,9.82v14.79c-1.36-0.62-2.84-0.99-4.36-1.08c-3.57-0.22-7.1,1.1-9.63,3.63L96,142.61l-28.3-28.3
				c-2.53-2.53-6.04-3.84-9.63-3.62c-1.52,0.1-3,0.47-4.36,1.09V96.98c0-3.75-1.62-7.33-4.45-9.82c-2.82-2.49-6.58-3.64-10.32-3.17
				c-6.52,0.82-11.43,6.58-11.43,13.4v36.53c0,0.03,0,0.06,0,0.1c-0.5,4.01,0.87,8.06,3.71,10.9l24.7,24.7
				c0.42,0.42,0.88,0.76,1.28,1.06c0.02,0.01,0.03,0.02,0.05,0.04c0,0.42,0,0.81,0,0.83v14.74c0,2.11,1.78,3.9,3.9,3.9h34.68
				c0.06,0,0.11-0.01,0.17-0.02c0.06,0,0.11,0.02,0.17,0.02h34.68c2.11,0,3.9-1.78,3.9-3.9v-14.73c0-0.03,0-0.42,0-0.84
				c0.02-0.01,0.03-0.02,0.05-0.04c0.4-0.3,0.86-0.64,1.29-1.06l24.69-24.69C163.62,142.08,164.99,138.03,164.49,134.03z
				 M92.14,152.25c-0.04,1.16-0.08,2.57-0.06,4.28c0,0.07-0.01,0.13-0.01,0.2v25.8H64.91v-10.98c0-0.03-0.01-2.04-0.02-2.29
				c-0.11-2.49-1.99-3.89-3.12-4.72c-0.17-0.13-0.34-0.24-0.44-0.33l-24.69-24.69c-1.22-1.22-1.78-2.98-1.51-4.72
				c0.04-0.24,0.04-0.63,0.03-0.87V97.39c0-2.92,2.08-5.48,4.74-5.81c1.58-0.2,3.11,0.27,4.3,1.32c1.18,1.04,1.86,2.53,1.86,4.08
				v21.31c0,0.1,0,0.19,0.01,0.29l0.37,4.83c0.1,3.2,1.41,6.39,3.86,8.84l19.39,19.39c0.67,1.13,1.89,1.88,3.3,1.88
				c1.55,0,3.01-0.98,3.6-2.41c0.59-1.43,0.25-3.15-0.85-4.25l-20.03-20.03c-1.85-1.85-2.15-4.77-0.69-6.65
				c0.87-1.12,2.13-1.78,3.53-1.87c1.39-0.09,2.76,0.42,3.74,1.4l29.42,29.43c0.05,0.05,0.11,0.1,0.16,0.15
				c0.16,0.14,0.22,0.22,0.23,0.22C92.21,149.88,92.17,151.14,92.14,152.25z M155.37,139.51l-24.67,24.67
				c-0.13,0.12-0.3,0.23-0.47,0.36c-1.12,0.83-3.01,2.23-3.12,4.73c-0.01,0.26-0.02,2.26-0.02,2.28v10.98H99.92v-25.8
				c0-0.06,0-0.13,0-0.19c0.02-1.73-0.02-3.13-0.06-4.28c-0.03-1.13-0.07-2.42,0.01-2.7c0,0,0.06-0.08,0.25-0.26
				c0.06-0.05,0.11-0.1,0.16-0.15l29.42-29.42c0.98-0.98,2.35-1.49,3.74-1.4c1.41,0.09,2.66,0.75,3.53,1.87
				c1.46,1.88,1.16,4.8-0.69,6.65l-20.03,20.03c-1.09,1.09-1.44,2.82-0.84,4.25c0.59,1.43,2.05,2.41,3.6,2.41
				c1.4,0,2.63-0.76,3.3-1.88l19.39-19.39c2.44-2.45,3.75-5.63,3.86-8.81l0.37-4.86c0.01-0.1,0.01-0.19,0.01-0.29V96.98
				c0-1.55,0.68-3.04,1.86-4.08c1.19-1.05,2.71-1.52,4.3-1.32c2.66,0.33,4.74,2.89,4.74,5.81l0,36.4c0,0.05-0.01,0.23-0.02,0.28
				c-0.01,0.24,0.01,0.48,0.04,0.72C157.15,136.53,156.58,138.29,155.37,139.51z"/>
		</g>
		<g>
			<path fill="#257885" d="M96,108.11c29.3,0,53.14-23.84,53.14-53.14S125.3,1.82,96,1.82S42.86,25.66,42.86,54.97
				S66.7,108.11,96,108.11z M96,11c24.24,0,43.96,19.72,43.96,43.96S120.24,98.93,96,98.93S52.04,79.21,52.04,54.97S71.76,11,96,11z
				"/>
		</g>
		<g>
			<path fill="#257885" d="M92.75,87.73c0.9,0.9,2.07,1.34,3.25,1.34s2.35-0.45,3.25-1.34l24.04-24.04
				c3.65-3.65,5.66-8.5,5.66-13.66s-2.01-10.01-5.66-13.66c-7.52-7.52-19.75-7.53-27.28-0.04c-7.53-7.5-19.77-7.49-27.28,0.04
				c-7.53,7.53-7.53,19.79,0,27.32L92.75,87.73z M75.21,42.86c3.96-3.96,10.39-3.95,14.34,0l3.21,3.2c0.4,0.4,0.86,0.7,1.35,0.92
				c0.88,0.4,1.85,0.52,2.78,0.34c0.86-0.17,1.69-0.59,2.36-1.26c0,0,0-0.01,0.01-0.01l3.2-3.2c3.95-3.96,10.39-3.95,14.34,0
				c1.92,1.91,2.97,4.46,2.97,7.17s-1.06,5.25-2.97,7.17L96,77.99L75.21,57.2c-1.91-1.92-2.97-4.46-2.97-7.17
				S73.29,44.78,75.21,42.86z"/>
		</g>
	</g>
</g>
<g id="鬧鐘提醒" display="none">
	<g display="inline">
		<g>
			<g>
				<path fill="#257885" d="M43.59,80.18l-8.72-5.69c9.15-14.02,22.95-24.63,38.88-29.86c15.92-5.24,33.33-4.9,49.01,0.96
					l-3.64,9.75c-13.67-5.1-28.24-5.39-42.12-0.82C63.11,59.08,51.56,67.96,43.59,80.18z"/>
			</g>
		</g>
		<g>
			<g>
				<path fill="#257885" d="M160.33,109.56c-0.42-4.9-1.42-9.76-2.97-14.46c-6.07-18.46-20.02-32.96-38.25-39.77l3.64-9.75
					c21.22,7.92,37.44,24.79,44.5,46.27c1.8,5.46,2.96,11.12,3.45,16.81L160.33,109.56z"/>
			</g>
		</g>
		<g>
			<g>
				<path fill="#257885" d="M96.69,189.13c-25.2,0-49.2-12.9-62.97-35.41l8.88-5.43c15.47,25.28,45.97,36.47,74.18,27.19
					c28.2-9.27,46.11-36.38,43.56-65.91l10.37-0.9c2.97,34.37-17.86,65.91-50.68,76.7C112.31,187.9,104.44,189.13,96.69,189.13z"/>
			</g>
		</g>
		<g>
			<g>
				<path fill="#257885" d="M33.72,153.72c-2.99-4.88-5.41-10.12-7.2-15.58c-7.07-21.48-4.02-44.68,8.35-63.65l8.72,5.69
					c-10.64,16.3-13.25,36.25-7.18,54.71c1.54,4.7,3.63,9.2,6.19,13.4L33.72,153.72z"/>
			</g>
		</g>
		<g>
			<g>
				<path fill="#257885" d="M28.17,95.72c-0.5-0.23-1-0.46-1.5-0.71C18.14,90.7,11.8,83.32,8.81,74.24
					c-2.99-9.08-2.26-18.78,2.05-27.32c8.9-17.62,30.47-24.71,48.08-15.81c7.65,3.86,13.66,10.35,16.93,18.27l-9.62,3.98
					c-2.32-5.62-6.58-10.22-12-12.95c-12.49-6.31-27.79-1.28-34.1,11.21c-3.06,6.05-3.57,12.93-1.45,19.37
					c2.12,6.44,6.62,11.67,12.67,14.73c0.35,0.18,0.71,0.34,1.06,0.5L28.17,95.72z"/>
			</g>
		</g>
		<g>
			<g>
				<path fill="#257885" d="M163.83,95.72l-4.26-9.5c0.36-0.16,0.71-0.33,1.06-0.5c6.05-3.06,10.55-8.29,12.67-14.73
					c2.12-6.44,1.6-13.32-1.45-19.37c-6.31-12.49-21.6-17.52-34.1-11.21c-5.42,2.74-9.68,7.34-12,12.95l-9.62-3.98
					c3.27-7.92,9.29-14.41,16.93-18.27c17.62-8.9,39.19-1.8,48.08,15.81c4.31,8.53,5.04,18.24,2.05,27.32
					c-2.99,9.08-9.33,16.46-17.87,20.77C164.83,95.26,164.33,95.5,163.83,95.72z"/>
			</g>
		</g>
		<g>
			<g>
				<path fill="#257885" d="M50.11,190.98c-0.87,0-1.75-0.22-2.66-0.69l0,0c-5.12-2.64-3.72-8.6,1.35-20.95l2.6-6.34l5.41,4.21
					c1.61,1.25,3.25,2.41,4.87,3.45l4.4,2.81l-2.81,4.39C58.43,185.41,54.47,190.98,50.11,190.98z"/>
			</g>
		</g>
		<g>
			<g>
				<path fill="#257885" d="M147.29,190.98c-4.36,0-8.31-5.56-13.15-13.12l-2.81-4.39l4.4-2.81c1.63-1.04,3.27-2.2,4.87-3.45
					l5.41-4.21l2.6,6.34c5.07,12.35,6.47,18.3,1.35,20.94l0,0C149.04,190.76,148.16,190.98,147.29,190.98z"/>
			</g>
		</g>
		<g>
			<g>
				<path fill="#257885" d="M97.07,125.42c-2.88,0-5.21-2.33-5.21-5.21V79.79c0-2.88,2.33-5.21,5.21-5.21s5.21,2.33,5.21,5.21v40.42
					C102.28,123.09,99.95,125.42,97.07,125.42z"/>
			</g>
		</g>
		<g>
			<g>
				<path fill="#257885" d="M115.84,144.12c-1.33,0-2.66-0.51-3.68-1.52l-18.7-18.7c-2.03-2.03-2.03-5.33,0-7.36
					c2.03-2.03,5.33-2.03,7.36,0l18.7,18.7c2.03,2.03,2.03,5.33,0,7.36C118.51,143.61,117.17,144.12,115.84,144.12z"/>
			</g>
		</g>
		<g>
			<g>
				<path fill="#257885" d="M97.07,62.46c-2.88,0-5.21-2.33-5.21-5.21v-8.4c0-2.88,2.33-5.21,5.21-5.21s5.21,2.33,5.21,5.21v8.4
					C102.28,60.13,99.95,62.46,97.07,62.46z"/>
			</g>
		</g>
		<g>
			<g>
				<path fill="#257885" d="M97.07,187.19c-2.88,0-5.21-2.33-5.21-5.21v-8.4c0-2.88,2.33-5.21,5.21-5.21s5.21,2.33,5.21,5.21v8.4
					C102.28,184.86,99.95,187.19,97.07,187.19z"/>
			</g>
		</g>
		<g>
			<g>
				<path fill="#257885" d="M39.15,126.47h-8.4c-2.88,0-5.21-2.33-5.21-5.21c0-2.88,2.33-5.21,5.21-5.21h8.4
					c2.88,0,5.21,2.33,5.21,5.21C44.35,124.14,42.02,126.47,39.15,126.47z"/>
			</g>
		</g>
		<g>
			<g>
				<path fill="#257885" d="M162,126.47h-8.4c-2.88,0-5.21-2.33-5.21-5.21c0-2.88,2.33-5.21,5.21-5.21h8.4
					c2.88,0,5.21,2.33,5.21,5.21C167.2,124.14,164.87,126.47,162,126.47z"/>
			</g>
		</g>
		<g>
			<g>
				<path fill="#257885" d="M69.12,19.75c-0.99,0-1.97-0.39-2.7-1.16c-1.41-1.49-1.34-3.85,0.15-5.26
					c3.89-3.68,14.66-12.25,30.5-12.3c0.05,0,0.11,0,0.16,0c15.69,0,26.44,8.39,30.34,12.01c1.51,1.4,1.59,3.75,0.2,5.26
					c-1.4,1.51-3.75,1.59-5.26,0.2c-3.27-3.03-12.29-10-25.41-10.02c-13.18,0.05-22.16,7.2-25.42,10.27
					C70.95,19.41,70.03,19.75,69.12,19.75z"/>
			</g>
		</g>
		<g>
			<g>
				<path fill="#257885" d="M79.16,33.8c-1.05,0-2.09-0.44-2.83-1.3c-1.33-1.56-1.15-3.91,0.41-5.24c2.6-2.23,9.79-7.41,20.32-7.44
					c0.04,0,0.07,0,0.11,0c10.43,0,17.61,5.07,20.21,7.26c1.57,1.32,1.78,3.67,0.46,5.24c-1.32,1.57-3.66,1.78-5.24,0.46
					c-1.98-1.66-7.44-5.52-15.43-5.52c-0.03,0-0.05,0-0.08,0c-8.06,0.03-13.53,3.96-15.51,5.66C80.87,33.51,80.01,33.8,79.16,33.8z"
					/>
			</g>
		</g>
	</g>
</g>
<g id="問" display="none">
	<g display="inline">
		<g>
			<path fill="#257885" d="M191,119.02c0-12.58-9.21-23.02-21.24-25c-1.03-5.46-5.49-9.7-11.05-10.43V67.73
				c0-28.23-25.79-51.21-57.49-51.21H90.56c-31.7,0-57.49,22.97-57.49,51.21v15.88c-5.45,0.81-9.81,5.02-10.83,10.4
				C10.21,95.99,1,106.44,1,119.02c0,12.58,9.21,23.02,21.24,25c1.14,6,6.42,10.56,12.74,10.56h5.53c7.16,0,12.98-5.82,12.98-12.98
				V96.43c0-6.68-5.08-12.2-11.58-12.9v-15.8c0-23.36,21.82-42.36,48.65-42.36h10.66c26.83,0,48.65,19,48.65,42.36v15.84
				c-6.4,0.8-11.37,6.26-11.37,12.87v45.17c0,5.61,3.59,10.39,8.58,12.2c-1.45,3.6-4.97,6.16-9.08,6.16h-26.71
				c-2.08-3.97-6.91-6.69-12.68-6.69c-7.73,0-13.78,4.88-13.78,11.11s6.05,11.11,13.78,11.11c5.77,0,10.6-2.72,12.68-6.69H138
				c8.75,0,16.09-6.07,18.08-14.21h0.93c6.33,0,11.61-4.56,12.74-10.56C181.79,142.04,191,131.6,191,119.02z M9.84,119.02
				c0-7.6,5.16-14,12.16-15.93v31.85C15.01,133.02,9.84,126.62,9.84,119.02z M44.65,96.43v45.17c0,2.28-1.86,4.14-4.14,4.14h-5.53
				c-2.28,0-4.14-1.86-4.14-4.14V96.43c0-2.28,1.86-4.14,4.14-4.14h5.53C42.8,92.3,44.65,94.15,44.65,96.43z M98.61,166.64
				c-3.07,0-4.94-1.57-4.94-2.27s1.87-2.27,4.94-2.27c3.07,0,4.94,1.57,4.94,2.27S101.69,166.64,98.61,166.64z M161.16,141.6
				c0,2.28-1.86,4.14-4.14,4.14h-5.53c-2.28,0-4.14-1.86-4.14-4.14V96.43c0-2.28,1.86-4.14,4.14-4.14h5.53
				c2.28,0,4.14,1.86,4.14,4.14V141.6z M170,134.94v-31.85c7,1.92,12.16,8.32,12.16,15.93C182.16,126.62,176.99,133.02,170,134.94z"
				/>
		</g>
		<g>
			<path fill="#257885" d="M90.13,129.7c1.19,2.05,3.39,3.33,5.76,3.33s4.58-1.28,5.76-3.33l3.42-5.93h21.77
				c3.67,0,6.66-2.99,6.66-6.66V81.65c0-3.67-2.99-6.66-6.66-6.66H64.94c-3.67,0-6.66,2.99-6.66,6.66v35.47
				c0,3.67,2.99,6.66,6.66,6.66H86.7L90.13,129.7z M67.12,83.83h57.54v31.1h-20.84c-2.37,0-4.58,1.28-5.76,3.33l-2.16,3.75
				l-2.16-3.75c-1.19-2.05-3.39-3.33-5.76-3.33H67.12V83.83z"/>
		</g>
		<g>
			<path fill="#257885" d="M74.16,96.17h20.18c1.74,0,3.16-1.41,3.16-3.16c0-1.74-1.41-3.16-3.16-3.16H74.16
				c-1.74,0-3.16,1.41-3.16,3.16C71,94.75,72.41,96.17,74.16,96.17z"/>
		</g>
		<g>
			<path fill="#257885" d="M104.02,96.17h12.69c1.74,0,3.16-1.41,3.16-3.16c0-1.74-1.41-3.16-3.16-3.16h-12.69
				c-1.74,0-3.16,1.41-3.16,3.16C100.86,94.75,102.28,96.17,104.02,96.17z"/>
		</g>
		<g>
			<path fill="#257885" d="M97.5,104.01c0-1.74-1.41-3.16-3.16-3.16H74.16c-1.74,0-3.16,1.41-3.16,3.16c0,1.74,1.41,3.16,3.16,3.16
				h20.18C96.08,107.17,97.5,105.76,97.5,104.01z"/>
		</g>
		<g>
			<path fill="#257885" d="M104.02,107.17h12.69c1.74,0,3.16-1.41,3.16-3.16c0-1.74-1.41-3.16-3.16-3.16h-12.69
				c-1.74,0-3.16,1.41-3.16,3.16C100.86,105.76,102.28,107.17,104.02,107.17z"/>
		</g>
	</g>
</g>
<g id="生活回憶" display="none">
	<g display="inline">
		<g>
			<path fill="#257885" d="M160.42,0.68H48.24c-16.15,0-29.28,11.98-29.28,26.71v6.5h-5.13c-6.35,0-11.52,5.17-11.52,11.52
				s5.17,11.52,11.52,11.52h3.35v11.84h-3.35c-6.35,0-11.52,5.17-11.52,11.52c0,6.35,5.17,11.52,11.52,11.52h3.35v11.84h-3.35
				c-6.35,0-11.52,5.17-11.52,11.52c0,6.35,5.17,11.52,11.52,11.52h3.35v11.84h-3.35c-6.35,0-11.52,5.17-11.52,11.52
				s5.17,11.52,11.52,11.52h5.13v3.04c0,14.73,13.13,26.71,29.28,26.71h112.18c16.15,0,29.28-11.98,29.28-26.71V27.39
				C189.7,12.66,176.56,0.68,160.42,0.68z M9.42,45.41c0-2.43,1.97-4.4,4.4-4.4h20.95c2.43,0,4.4,1.97,4.4,4.4s-1.97,4.4-4.4,4.4
				H13.82C11.4,49.81,9.42,47.83,9.42,45.41z M9.42,80.29c0-2.43,1.97-4.4,4.4-4.4h20.95c2.43,0,4.4,1.97,4.4,4.4s-1.97,4.4-4.4,4.4
				H13.82C11.4,84.69,9.42,82.71,9.42,80.29z M9.42,115.17c0-2.43,1.97-4.4,4.4-4.4h20.95c2.43,0,4.4,1.97,4.4,4.4
				c0,2.42-1.97,4.4-4.4,4.4H13.82C11.4,119.57,9.42,117.59,9.42,115.17z M9.42,150.05c0-2.43,1.97-4.4,4.4-4.4h20.95
				c2.43,0,4.4,1.97,4.4,4.4s-1.97,4.4-4.4,4.4H13.82C11.4,154.45,9.42,152.48,9.42,150.05z M179.01,164.61
				c0,8.84-8.34,16.03-18.6,16.03H48.24c-10.25,0-18.6-7.19-18.6-16.03v-3.04h5.13c6.35,0,11.52-5.17,11.52-11.52
				s-5.17-11.52-11.52-11.52h-3.35v-11.84h3.35c6.35,0,11.52-5.17,11.52-11.52c0-6.35-5.17-11.52-11.52-11.52h-3.35V91.81h3.35
				c6.35,0,11.52-5.17,11.52-11.52c0-6.35-5.17-11.52-11.52-11.52h-3.35V56.93h3.35c6.35,0,11.52-5.17,11.52-11.52
				s-5.17-11.52-11.52-11.52h-5.13v-6.5c0-8.84,8.34-16.03,18.6-16.03h112.18c10.25,0,18.6,7.19,18.6,16.03V164.61z"/>
		</g>
		<g>
			<path fill="#257885" d="M110.72,151.15H74.63c-6.07,0-11-5.67-11-12.63v-21.1c2.81-4.21,8.84-11.4,13.65-12.12
				c1.39-0.21,2.56,0.18,3.78,1.26c1.31,1.16,2.49,2.25,3.56,3.25c4.64,4.3,8.28,7.7,13.26,7.35c4.78-0.34,8.84-4.19,13.46-9.87
				c0.81-0.99,1.65-2.05,2.53-3.15c6.28-7.89,15.79-19.79,23.3-19.08c3.57,0.35,7.09,3.7,10.47,9.89v17.91
				c0,2.46,1.99,4.45,4.45,4.45c2.46,0,4.45-1.99,4.45-4.45V52.33c0-11.88-8.93-21.54-19.9-21.54H74.63
				c-10.97,0-19.9,9.66-19.9,21.54v10.48c0,2.46,1.99,4.45,4.45,4.45c2.46,0,4.45-1.99,4.45-4.45V52.33c0-6.97,4.93-12.63,11-12.63
				h62.01c6.07,0,11,5.67,11,12.63v28.18c-2.98-2.53-6.18-3.98-9.61-4.31c-12.33-1.17-23.2,12.44-31.13,22.4
				c-0.86,1.08-1.68,2.11-2.47,3.08c-4.75,5.84-6.6,6.56-7.18,6.6c-0.02,0-0.03,0-0.05,0c-1.14,0-4.01-2.65-6.54-5
				c-1.12-1.04-2.35-2.18-3.71-3.38c-3.19-2.82-6.98-4-11-3.4c-4.61,0.69-8.88,3.7-12.33,7.02V79.96c0-2.46-1.99-4.45-4.45-4.45
				c-2.46,0-4.45,1.99-4.45,4.45v58.56c0,11.88,8.93,21.54,19.9,21.54h36.09c2.46,0,4.45-1.99,4.45-4.45
				C115.17,153.14,113.18,151.15,110.72,151.15z"/>
		</g>
		<g>
			<path fill="#257885" d="M110.03,69.32c0-8.17-6.65-14.82-14.82-14.82s-14.82,6.65-14.82,14.82s6.65,14.82,14.82,14.82
				S110.03,77.49,110.03,69.32z M87.51,69.32c0-4.24,3.45-7.7,7.7-7.7c4.24,0,7.7,3.45,7.7,7.7c0,4.25-3.45,7.7-7.7,7.7
				C90.96,77.02,87.51,73.56,87.51,69.32z"/>
		</g>
		<g>
			<path fill="#257885" d="M168.96,127.8L168.96,127.8c-2.72-2.44-6.23-3.7-9.89-3.49c-3.66,0.19-7.03,1.8-9.47,4.51l-2.65,2.95
				l-2.95-2.65c-2.72-2.44-6.23-3.67-9.89-3.49c-3.66,0.19-7.03,1.8-9.47,4.51c-5.05,5.62-4.59,14.31,1.03,19.36l23.34,20.98
				l20.98-23.34C175.04,141.54,174.58,132.85,168.96,127.8z M163.37,141.21l-15.03,16.72l-16.72-15.03
				c-0.95-0.85-1.5-2.03-1.57-3.32c-0.07-1.29,0.36-2.52,1.21-3.47c0.85-0.95,2.03-1.51,3.32-1.58c0.09,0,0.18-0.01,0.26-0.01
				c1.19,0,2.32,0.43,3.2,1.22l9.57,8.6l8.6-9.57c0.85-0.95,2.03-1.51,3.32-1.57c1.32-0.07,2.52,0.36,3.47,1.21
				C164.98,136.19,165.14,139.24,163.37,141.21z"/>
		</g>
	</g>
</g>
<g id="SOS" display="none">
	<g display="inline">
		<g>
			<g>
				<path fill="#257885" d="M186.95,135.28l-63.6-110.16C117.65,15.24,107.42,9.34,96,9.34s-21.65,5.9-27.35,15.79L5.05,135.28
					c-5.71,9.89-5.71,21.7,0,31.59c5.71,9.89,15.94,15.79,27.35,15.79h127.2c11.42,0,21.65-5.9,27.35-15.79
					C192.66,156.98,192.66,145.17,186.95,135.28z M172.77,158.68c-2.75,4.76-7.67,7.6-13.17,7.6H32.4c-5.5,0-10.42-2.84-13.17-7.6
					c-2.75-4.76-2.75-10.45,0-15.21l63.6-110.16c2.75-4.76,7.67-7.6,13.17-7.6s10.42,2.84,13.17,7.6l63.6,110.16
					C175.52,148.24,175.52,153.92,172.77,158.68z"/>
			</g>
			<g>
				<path fill="#257885" d="M88.52,117.24c0.18,2.39,2.18,4.24,4.58,4.24h5.8c2.4,0,4.39-1.85,4.58-4.24l2.91-37.79l0.48-12.79
					c0.14-3.82-2.91-6.99-6.73-6.99h-8.27c-3.82,0-6.87,3.17-6.73,6.99l0.48,12.79L88.52,117.24z"/>
			</g>
			<g>
				<path fill="#257885" d="M94.77,129.35c-6.97,0.58-11.89,6.32-11.89,13.63c0,7.71,5.47,13.8,13.05,13.8
					c7.67,0,13.12-6.02,13.18-13.67C109.18,135.28,102.58,128.71,94.77,129.35z"/>
			</g>
		</g>
	</g>
</g>
<g id="社區公告" display="none">
	<g display="inline">
		<g>
			<path fill="#3E6668" d="M115.39,42.21l-9.73-25.19c-3.08-7.97-12.07-11.96-20.05-8.88c-7.28,2.81-11.22,10.56-9.5,17.96
				L42.59,59.49l-21,8.11C5.58,73.78-2.42,91.84,3.77,107.85l4.55,11.79c4.4,11.4,14.82,18.73,26.23,19.78l14.81,38.34
				c1.43,3.7,4.57,6.51,8.4,7.52l11.05,2.91l0,0c2.58,0.68,5.23,0.51,7.61-0.41c1.79-0.69,3.43-1.81,4.77-3.31
				c3.12-3.49,4.01-8.36,2.32-12.72l-6.71-17.37l10.81-1.72c0.25-0.04,0.48-0.1,0.71-0.19c0.73-0.28,1.36-0.81,1.77-1.5
				c0.53-0.91,0.63-2,0.26-2.99L83.73,130l33.11,1.53c3.7,6.63,11.82,9.72,19.1,6.91c7.97-3.08,11.96-12.07,8.88-20.05l-9.73-25.19
				c10.87-7.02,15.73-20.96,10.88-33.5C141.12,47.16,128.16,40.11,115.39,42.21z M50.46,64.87l29.21-29.09l33.29,86.2l-41.18-1.9
				L50.46,64.87z M17.06,116.26l-4.55-11.79c-4.32-11.19,1.27-23.82,12.46-28.14l16.09-6.22l20.23,52.39l-16.09,6.22
				C34,133.05,21.38,127.46,17.06,116.26z M74.78,175.11c0.6,1.56-0.2,2.69-0.57,3.1c-0.37,0.41-1.4,1.33-3.02,0.91l-11.05-2.91
				c-0.93-0.25-1.7-0.93-2.05-1.83l-12.97-33.57l14.27-5.51L74.78,175.11z M82.29,146.38l-8.07,1.29l-6.76-17.5l2.12-0.82l6.53,0.3
				L82.29,146.38z M136.08,121.77c1.22,3.16-0.36,6.72-3.51,7.94c-3.16,1.22-6.72-0.36-7.94-3.51L85.47,24.82
				c-1.22-3.16,0.36-6.72,3.51-7.94c3.16-1.22,6.72,0.36,7.94,3.51L136.08,121.77z M131.59,84.17l-12.71-32.92
				c7.82-0.44,15.38,4.14,18.35,11.83C140.2,70.76,137.68,79.24,131.59,84.17z"/>
		</g>
		<g>
			<path fill="#3E6668" d="M38.29,85.4c-0.7-1.81-2.73-2.71-4.54-2.01l-9.77,3.77c-1.81,0.7-2.71,2.73-2.01,4.54
				s2.73,2.71,4.54,2.01l9.77-3.77C38.08,89.25,38.98,87.21,38.29,85.4z"/>
		</g>
		<g>
			<path fill="#3E6668" d="M74.18,53.67L60.67,66.86c-1.39,1.36-1.41,3.58-0.06,4.97c1.01,1.04,2.51,1.31,3.78,0.82
				c0.43-0.17,0.84-0.42,1.19-0.76L79.08,58.7c1.39-1.36,1.41-3.58,0.06-4.97C77.79,52.34,75.56,52.32,74.18,53.67z"/>
		</g>
		<g>
			<path fill="#3E6668" d="M181.72,38.36l-23.13,8.93c-3.62,1.4-5.42,5.47-4.02,9.08s5.47,5.42,9.08,4.02l23.13-8.93
				c3.62-1.4,5.42-5.47,4.02-9.08S185.34,36.96,181.72,38.36z"/>
		</g>
		<g>
			<path fill="#3E6668" d="M146.77,41c1.68-0.65,3.11-1.94,3.89-3.71l10.04-22.67c1.57-3.55-0.03-7.7-3.58-9.27
				c-3.55-1.57-7.7,0.03-9.27,3.58l-10.04,22.67c-1.57,3.55,0.03,7.7,3.58,9.27C143.17,41.66,145.09,41.65,146.77,41z"/>
		</g>
		<g>
			<path fill="#3E6668" d="M164.51,73.13c-3.55-1.57-7.7,0.03-9.27,3.58c-1.57,3.55,0.03,7.7,3.58,9.27l22.67,10.04
				c1.77,0.79,3.7,0.78,5.37,0.13s3.11-1.94,3.89-3.71c1.57-3.55-0.03-7.7-3.58-9.27L164.51,73.13z"/>
		</g>
	</g>
</g>
<g id="社區行事曆" display="none">
	<g display="inline">
		<g>
			<path fill="#3E6668" d="M54.06,62.26H33.8c-1.53,0-2.77,1.24-2.77,2.77v19.25c0,1.53,1.24,2.77,2.77,2.77h20.25
				c1.53,0,2.77-1.24,2.77-2.77V65.03C56.83,63.5,55.59,62.26,54.06,62.26z M51.28,81.51H36.58v-13.7h14.71V81.51z"/>
		</g>
		<g>
			<path fill="#3E6668" d="M54.06,94.13H33.8c-1.53,0-2.77,1.24-2.77,2.77v19.25c0,1.53,1.24,2.77,2.77,2.77h20.25
				c1.53,0,2.77-1.24,2.77-2.77V96.91C56.83,95.37,55.59,94.13,54.06,94.13z M51.28,113.38H36.58v-13.7h14.71V113.38z"/>
		</g>
		<g>
			<path fill="#3E6668" d="M54.06,125.97H33.8c-1.53,0-2.77,1.24-2.77,2.77V148c0,1.53,1.24,2.77,2.77,2.77h20.25
				c1.53,0,2.77-1.24,2.77-2.77v-19.25C56.83,127.22,55.59,125.97,54.06,125.97z M51.28,145.22H36.58v-13.7h14.71V145.22z"/>
		</g>
		<g>
			<path fill="#3E6668" d="M97.19,62.26H76.93c-1.53,0-2.77,1.24-2.77,2.77v19.25c0,1.53,1.24,2.77,2.77,2.77h20.25
				c1.53,0,2.77-1.24,2.77-2.77V65.03C99.96,63.5,98.72,62.26,97.19,62.26z M94.42,81.51H79.71v-13.7h14.71V81.51z"/>
		</g>
		<g>
			<path fill="#3E6668" d="M97.19,94.13H76.93c-1.53,0-2.77,1.24-2.77,2.77v19.25c0,1.53,1.24,2.77,2.77,2.77h20.25
				c1.53,0,2.77-1.24,2.77-2.77V96.91C99.96,95.37,98.72,94.13,97.19,94.13z M94.42,113.38H79.71v-13.7h14.71V113.38z"/>
		</g>
		<g>
			<path fill="#3E6668" d="M97.19,125.97H76.93c-1.53,0-2.77,1.24-2.77,2.77V148c0,1.53,1.24,2.77,2.77,2.77h20.25
				c1.53,0,2.77-1.24,2.77-2.77v-19.25C99.96,127.22,98.72,125.97,97.19,125.97z M94.42,145.22H79.71v-13.7h14.71V145.22z"/>
		</g>
		<g>
			<path fill="#3E6668" d="M120.07,87.05h20.25c1.53,0,2.77-1.24,2.77-2.77V65.03c0-1.53-1.24-2.77-2.77-2.77h-20.25
				c-1.53,0-2.77,1.24-2.77,2.77v19.25C117.29,85.81,118.54,87.05,120.07,87.05z M122.84,67.81h14.71v13.7h-14.71V67.81z"/>
		</g>
		<g>
			<path fill="#3E6668" d="M169.08,101.06V63.45c0-11.72-7.73-22.15-18.89-25.66v-4.56c0-4.66-3.79-8.45-8.45-8.45
				s-8.45,3.79-8.45,8.45v3.31h-3.98v-3.31c0-4.66-3.79-8.45-8.45-8.45s-8.45,3.79-8.45,8.45v3.31H63.54v-3.31
				c0-4.66-3.79-8.45-8.45-8.45s-8.45,3.79-8.45,8.45v3.31h-3.98v-3.31c0-4.66-3.79-8.45-8.45-8.45s-8.45,3.79-8.45,8.45v3.39
				C11.84,37.63,0.82,49.27,0.82,63.45v76.86c0,14.84,12.07,26.92,26.92,26.92h129.44v-0.33c18.74,0,33.99-15.25,33.99-33.99
				C191.18,118.34,181.97,105.89,169.08,101.06z M138.84,33.22c0-1.6,1.3-2.9,2.9-2.9c1.6,0,2.9,1.3,2.9,2.9v14.48
				c0,1.6-1.3,2.9-2.9,2.9c-1.6,0-2.9-1.3-2.9-2.9V33.22z M117.96,33.22c0-1.6,1.3-2.9,2.9-2.9s2.9,1.3,2.9,2.9v14.48
				c0,1.6-1.3,2.9-2.9,2.9s-2.9-1.3-2.9-2.9V33.22z M52.18,33.22c0-1.6,1.3-2.9,2.9-2.9c1.6,0,2.9,1.3,2.9,2.9v14.48
				c0,1.6-1.3,2.9-2.9,2.9c-1.6,0-2.9-1.3-2.9-2.9V33.22z M31.31,33.22c0-1.6,1.3-2.9,2.9-2.9s2.9,1.3,2.9,2.9v14.48
				c0,1.6-1.3,2.9-2.9,2.9s-2.9-1.3-2.9-2.9V33.22z M27.74,159.46c-10.56,0-19.15-8.59-19.15-19.15V63.45
				c0-9.89,7.54-18.06,17.17-19.05v3.31c0,4.66,3.79,8.45,8.45,8.45s8.45-3.79,8.45-8.45V44.3h3.98v3.41c0,4.66,3.79,8.45,8.45,8.45
				s8.45-3.79,8.45-8.45V44.3h48.87v3.41c0,4.66,3.79,8.45,8.45,8.45s8.45-3.79,8.45-8.45V44.3h3.98v3.41
				c0,4.66,3.79,8.45,8.45,8.45s8.45-3.79,8.45-8.45v-1.63c6.67,3.1,11.12,9.87,11.12,17.37v35.72c-1.35-0.16-2.73-0.26-4.13-0.26
				c-5.02,0-9.79,1.1-14.09,3.07v-5.07c0-1.53-1.24-2.77-2.77-2.77h-20.25c-1.53,0-2.77,1.24-2.77,2.77v19.25
				c0,1.53,1.24,2.77,2.77,2.77h6.14c-1.01,2.23-1.79,4.59-2.31,7.05h-3.83c-1.53,0-2.77,1.24-2.77,2.77V148
				c0,1.53,1.24,2.77,2.77,2.77h8.21c2.06,3.32,4.68,6.26,7.73,8.69H27.74z M125.51,145.22h-2.67v-13.7h0.38
				c-0.02,0.46-0.04,0.92-0.04,1.38C123.19,137.25,124.02,141.4,125.51,145.22z M129.38,113.38h-6.54v-13.7h14.71v5.5
				C134.38,107.43,131.61,110.2,129.38,113.38z M157.18,159.13c-14.46,0-26.23-11.77-26.23-26.23s11.77-26.23,26.23-26.23
				c14.46,0,26.23,11.77,26.23,26.23S171.65,159.13,157.18,159.13z"/>
		</g>
		<g>
			<path fill="#3E6668" d="M169.57,126.31c0-6.83-5.56-12.39-12.39-12.39s-12.39,5.56-12.39,12.39c0,3.16,1.2,6.04,3.15,8.23
				c-2.22,3.12-3.47,7.26-3.47,11.66c0,0.6,0.02,1.2,0.07,1.78c0.09,1.16,1.05,2.05,2.21,2.05h20.86c1.16,0,2.12-0.89,2.21-2.05
				c0.05-0.59,0.07-1.18,0.07-1.78c0-4.4-1.25-8.54-3.47-11.66C168.38,132.35,169.57,129.47,169.57,126.31z M157.18,118.36
				c4.39,0,7.95,3.57,7.95,7.95c0,4.39-3.57,7.95-7.95,7.95c-4.39,0-7.95-3.57-7.95-7.95C149.23,121.93,152.8,118.36,157.18,118.36z
				 M148.92,145.6c0.1-3.04,0.96-5.92,2.37-8.11c3.6,1.94,8.18,1.94,11.78,0c1.42,2.19,2.27,5.07,2.37,8.11H148.92z"/>
		</g>
	</g>
</g>
<g id="智慧對講" display="none">
	<g display="inline">
		<g>
			<g>
				<path fill="#3E6668" d="M156.68,18.76H35.32c-19.2,0-34.83,15.62-34.83,34.83v84.82c0,19.2,15.62,34.83,34.83,34.83h121.35
					c19.2,0,34.83-15.62,34.83-34.83V53.59C191.5,34.39,175.88,18.76,156.68,18.76z M180.7,138.41c0,13.25-10.78,24.02-24.02,24.02
					H35.32c-13.25,0-24.02-10.78-24.02-24.02V53.59c0-13.25,10.78-24.02,24.02-24.02h121.35c13.25,0,24.02,10.78,24.02,24.02V138.41
					z"/>
			</g>
			<g>
				<path fill="#3E6668" d="M149.49,36.44H42.51c-9.91,0-17.97,8.06-17.97,17.97v32.56c0,9.91,8.06,17.97,17.97,17.97h106.97
					c9.91,0,17.97-8.06,17.97-17.97V54.4C167.45,44.5,159.39,36.44,149.49,36.44z M96,75.5c-5.96,0-10.81-4.85-10.81-10.81
					c0-5.96,4.85-10.81,10.81-10.81c5.96,0,10.81,4.85,10.81,10.81C106.81,70.65,101.96,75.5,96,75.5z M87.45,80.02
					c2.53,1.42,5.45,2.23,8.55,2.23c3.11,0,6.03-0.81,8.56-2.24c1.49,2.09,3.63,6.81,4.05,16.82H83.25
					C83.69,86.22,86.08,81.73,87.45,80.02z M159.35,86.97c0,5.44-4.43,9.87-9.87,9.87h-34.12c-0.45-11.78-3.15-17.98-5.63-21.23
					c2.39-3,3.82-6.8,3.82-10.92c0-9.68-7.88-17.56-17.56-17.56S78.44,55,78.44,64.69c0,3.65,1.12,7.04,3.03,9.85
					c-2.71,3.17-5.84,9.56-6.33,22.3H42.51c-5.44,0-9.87-4.43-9.87-9.87V54.4c0-5.44,4.43-9.87,9.87-9.87h106.97
					c5.44,0,9.87,4.43,9.87,9.87V86.97z"/>
			</g>
			<g>
				<circle fill="#3E6668" cx="45.68" cy="119.01" r="5.06"/>
			</g>
			<g>
				<circle fill="#3E6668" cx="65.06" cy="119.01" r="5.06"/>
			</g>
			<g>
				<circle fill="#3E6668" cx="84.43" cy="119.01" r="5.06"/>
			</g>
			<g>
				<circle fill="#3E6668" cx="45.68" cy="135.27" r="5.06"/>
			</g>
			<g>
				<circle fill="#3E6668" cx="65.06" cy="135.27" r="5.06"/>
			</g>
			<g>
				<circle fill="#3E6668" cx="84.43" cy="135.27" r="5.06"/>
			</g>
			<g>
				<circle fill="#3E6668" cx="45.68" cy="151.53" r="5.06"/>
			</g>
			<g>
				<circle fill="#3E6668" cx="65.06" cy="151.53" r="5.06"/>
			</g>
			<g>
				<circle fill="#3E6668" cx="84.43" cy="151.53" r="5.06"/>
			</g>
			<g>
				<path fill="#3E6668" d="M128.52,117.3c-9.91,0-17.97,8.06-17.97,17.97s8.06,17.97,17.97,17.97s17.97-8.06,17.97-17.97
					S138.43,117.3,128.52,117.3z M128.52,146.49c-6.19,0-11.22-5.03-11.22-11.22c0-6.19,5.03-11.22,11.22-11.22
					c6.19,0,11.22,5.03,11.22,11.22C139.74,141.46,134.71,146.49,128.52,146.49z"/>
			</g>
		</g>
	</g>
</g>
<g id="意見報修" display="none">
	<g display="inline">
		<g>
			<path fill="#3E6668" d="M128.81,158.35c-3.05,0-5.52,2.47-5.52,5.52c0,5.41-4.92,9.81-10.97,9.81H22.75
				c-6.05,0-10.97-4.4-10.97-9.81V27.48c0-5.41,4.92-9.81,10.97-9.81h89.57c6.05,0,10.97,4.4,10.97,9.81v40.03
				c0,3.05,2.47,5.52,5.52,5.52c3.05,0,5.52-2.47,5.52-5.52V27.48c0-11.49-9.87-20.85-22.01-20.85H22.75
				c-12.14,0-22.01,9.35-22.01,20.85v136.39c0,11.49,9.87,20.85,22.01,20.85h89.57c12.14,0,22.01-9.35,22.01-20.85
				C134.33,160.82,131.86,158.35,128.81,158.35z"/>
		</g>
		<g>
			<path fill="#3E6668" d="M29.74,50.16h46.42c2.03,0,3.68-1.65,3.68-3.68s-1.65-3.68-3.68-3.68H29.74c-2.03,0-3.68,1.65-3.68,3.68
				S27.71,50.16,29.74,50.16z"/>
		</g>
		<g>
			<path fill="#3E6668" d="M101.64,72.45c0-2.03-1.65-3.68-3.68-3.68H29.74c-2.03,0-3.68,1.65-3.68,3.68s1.65,3.68,3.68,3.68h68.22
				C99.99,76.13,101.64,74.49,101.64,72.45z"/>
		</g>
		<g>
			<path fill="#3E6668" d="M75.49,94.74H29.74c-2.03,0-3.68,1.65-3.68,3.68s1.65,3.68,3.68,3.68h45.74c2.03,0,3.68-1.65,3.68-3.68
				S77.52,94.74,75.49,94.74z"/>
		</g>
		<g>
			<path fill="#3E6668" d="M29.74,151.8l45.74,0c2.03,0,3.68-1.65,3.68-3.68c0-2.03-1.65-3.68-3.68-3.68l-45.74,0
				c-2.03,0-3.68,1.65-3.68,3.68C26.07,150.16,27.71,151.8,29.74,151.8z"/>
		</g>
		<g>
			<path fill="#3E6668" d="M29.74,128.07h31.2c2.03,0,3.68-1.65,3.68-3.68s-1.65-3.68-3.68-3.68h-31.2c-2.03,0-3.68,1.65-3.68,3.68
				S27.71,128.07,29.74,128.07z"/>
		</g>
		<g>
			<path fill="#3E6668" d="M186.81,156.43l-35.23-34.15c5.16-13.42,2.79-27.36-6.3-36.09c-9.77-9.38-25.12-10.76-39.1-3.52
				c-1.32,0.68-2.22,1.96-2.44,3.43c-0.21,1.47,0.3,2.95,1.37,3.98l15.4,14.8c0.63,2.24,0.98,4.54,1.03,6.87
				c0.04,1.96-0.13,3.92-0.5,5.84c-1.94,0.47-3.93,0.73-5.93,0.75c-2.28,0.03-4.54-0.23-6.75-0.78l-15.39-14.78
				c-1.07-1.03-2.57-1.48-4.03-1.2c-1.46,0.27-2.7,1.24-3.32,2.58c-6.61,14.23-4.58,29.47,5.15,38.81
				c9.28,8.91,23.7,10.6,37.14,4.47l34.87,33.8c2.75,2.67,6.38,4.13,10.22,4.13c0.08,0,0.16,0,0.24,0c3.93-0.06,7.6-1.64,10.32-4.45
				l3.59-3.71c2.72-2.81,4.19-6.52,4.13-10.45C191.2,162.82,189.62,159.16,186.81,156.43z M180.53,170.8l-3.59,3.71
				c-1.01,1.05-2.38,1.63-3.86,1.66c-1.45,0.03-2.86-0.52-3.91-1.54l-35.79-34.7c-0.6-0.58-1.35-0.99-2.17-1.18l-2.81-0.65
				c-0.34-0.08-0.69-0.12-1.04-0.12c-0.72,0-1.42,0.17-2.07,0.49c-10.33,5.21-21.38,4.36-28.17-2.15
				c-5.49-5.28-7.38-13.47-5.38-21.98L102.84,125c0.53,0.51,1.19,0.89,1.9,1.1c3.41,1,6.96,1.48,10.5,1.43
				c3.72-0.05,7.4-0.68,10.93-1.86c0.7-0.24,1.34-0.64,1.85-1.17l0.24-0.25c0.52-0.54,0.9-1.21,1.11-1.93
				c0.99-3.51,1.46-7.13,1.38-10.78c-0.08-3.6-0.69-7.16-1.81-10.59c-0.24-0.72-0.64-1.36-1.19-1.89l-11.13-10.69
				c8.46-2.4,16.77-0.85,22.3,4.46c6.78,6.52,8.07,17.53,3.28,28.07c-0.65,1.42-0.53,3.07,0.31,4.38l1.44,2.25
				c0.19,0.3,0.42,0.58,0.67,0.82l35.79,34.7c1.05,1.01,1.63,2.38,1.66,3.86C182.09,168.37,181.54,169.76,180.53,170.8z"/>
		</g>
	</g>
</g>
<g id="社區通知" display="none">
	<g display="inline">
		<g>
			<g>
				<path fill="#3E6668" d="M143.89,110.77V87.15c0-19.1-11.4-35.58-27.75-43.02c1.98-3.36,3.14-7.27,3.14-11.45
					c0-12.48-10.15-22.63-22.63-22.63c-12.48,0-22.63,10.15-22.63,22.63c0,4.18,1.16,8.08,3.14,11.45
					c-16.35,7.44-27.75,23.92-27.75,43.02v23.62L33.2,142.81c-1.2,2.38-1.09,5.2,0.31,7.47c1.39,2.27,3.87,3.65,6.53,3.65h23.33
					c1.89,16.7,16.09,29.72,33.29,29.72s31.39-13.02,33.29-29.72h23.33c2.66,0,5.13-1.38,6.53-3.65c1.39-2.27,1.51-5.1,0.31-7.47
					L143.89,110.77z M87.64,32.69c0-4.97,4.04-9.01,9.01-9.01c4.97,0,9.01,4.04,9.01,9.01c0,3.12-1.6,5.87-4.01,7.49
					c-1.64-0.17-3.31-0.27-4.99-0.27c-1.69,0-3.35,0.09-4.99,0.27C89.24,38.56,87.64,35.81,87.64,32.69z M96.65,168.32
					c-8.73,0-16.03-6.18-17.78-14.39h35.56C112.68,162.14,105.38,168.32,96.65,168.32z M52.51,138.6l11.4-22.54
					c0.54-1.07,0.83-2.26,0.83-3.46V87.15c0-17.33,13.89-31.44,31.11-31.87c0.27,0.01,0.53,0.04,0.8,0.04s0.54-0.03,0.8-0.04
					c17.22,0.43,31.11,14.55,31.11,31.87v25.45c0,1.2,0.28,2.39,0.83,3.46l11.4,22.54H52.51z"/>
			</g>
			<g>
				<path fill="#3E6668" d="M139.58,29.33c-3.27-0.51-6.3,1.73-6.8,4.98c-0.5,3.25,1.73,6.3,4.98,6.8
					c5.01,0.77,9.41,3.45,12.41,7.54c2.99,4.09,4.22,9.1,3.44,14.11c-0.5,3.25,1.73,6.3,4.98,6.8c0.31,0.05,0.61,0.07,0.92,0.07
					c2.89,0,5.43-2.11,5.89-5.05c1.26-8.16-0.73-16.31-5.61-22.97C154.91,34.95,147.73,30.59,139.58,29.33z"/>
			</g>
			<g>
				<path fill="#3E6668" d="M183.73,26.39c-6.46-8.82-15.97-14.6-26.77-16.27c-3.24-0.5-6.3,1.73-6.8,4.98
					c-0.5,3.25,1.73,6.3,4.98,6.8c15.81,2.44,26.68,17.29,24.24,33.09c-0.5,3.25,1.73,6.3,4.98,6.8c0.31,0.05,0.61,0.07,0.92,0.07
					c2.89,0,5.43-2.11,5.89-5.05C192.83,46.01,190.19,35.21,183.73,26.39z"/>
			</g>
			<g>
				<path fill="#3E6668" d="M33.4,67.86c3.25-0.5,5.48-3.55,4.98-6.8c-0.77-5.01,0.45-10.02,3.44-14.11
					c2.99-4.09,7.4-6.76,12.41-7.54c3.25-0.5,5.48-3.55,4.98-6.8c-0.5-3.25-3.55-5.5-6.8-4.98c-8.15,1.26-15.33,5.62-20.21,12.28
					s-6.87,14.81-5.61,22.97c0.45,2.95,2.99,5.05,5.88,5.05C32.79,67.93,33.1,67.91,33.4,67.86z"/>
			</g>
			<g>
				<path fill="#3E6668" d="M36.86,20.2c3.25-0.5,5.48-3.55,4.98-6.8c-0.5-3.26-3.55-5.49-6.8-4.98c-22.3,3.45-37.65,24.4-34.2,46.7
					c0.45,2.95,2.99,5.05,5.88,5.05c0.3,0,0.61-0.02,0.92-0.07c3.25-0.5,5.48-3.55,4.98-6.8C10.18,37.49,21.05,22.64,36.86,20.2z"/>
			</g>
		</g>
	</g>
</g>
<g id="公設預約" display="none">
	<g display="inline">
		<g>
			<path fill="#3E6668" d="M42.76,95.88H30.62c-4.46,0-8.1,3.63-8.1,8.1v12.14c0,4.47,3.63,8.1,8.1,8.1h12.14
				c4.46,0,8.1-3.63,8.1-8.1v-12.14C50.86,99.52,47.23,95.88,42.76,95.88z M44.87,116.12c0,1.14-0.97,2.11-2.11,2.11H30.62
				c-1.14,0-2.11-0.97-2.11-2.11v-12.14c0-1.16,0.95-2.11,2.11-2.11h12.14c1.16,0,2.11,0.95,2.11,2.11V116.12z"/>
		</g>
		<g>
			<path fill="#3E6668" d="M42.76,133.15H30.62c-4.46,0-8.1,3.63-8.1,8.1v12.14c0,4.47,3.63,8.1,8.1,8.1h12.14
				c4.46,0,8.1-3.63,8.1-8.1v-12.14C50.86,136.78,47.23,133.15,42.76,133.15z M44.87,153.39c0,1.16-0.95,2.11-2.11,2.11H30.62
				c-1.16,0-2.11-0.95-2.11-2.11v-12.14c0-1.16,0.95-2.11,2.11-2.11h12.14c1.16,0,2.11,0.95,2.11,2.11V153.39z"/>
		</g>
		<g>
			<path fill="#3E6668" d="M119.06,124.22h12.14c4.46,0,8.1-3.63,8.1-8.1v-12.14c0-4.47-3.63-8.1-8.1-8.1h-12.14
				c-4.46,0-8.1,3.63-8.1,8.1v12.14C110.96,120.59,114.59,124.22,119.06,124.22z M116.95,103.98c0-1.16,0.95-2.11,2.11-2.11h12.14
				c1.16,0,2.11,0.95,2.11,2.11v12.14c0,1.14-0.97,2.11-2.11,2.11h-12.14c-1.14,0-2.11-0.97-2.11-2.11V103.98z"/>
		</g>
		<g>
			<path fill="#3E6668" d="M92.16,99.4l-13.84,13.84l-6.33-6.33c-1.4-1.4-3.68-1.4-5.08,0c-1.4,1.4-1.4,3.68,0,5.08l6.56,6.56
				c1.34,1.34,3.09,2,4.85,2c1.76,0,3.51-0.67,4.85-2l14.07-14.07c1.4-1.4,1.4-3.68,0-5.08C95.83,97.99,93.56,97.99,92.16,99.4z"/>
		</g>
		<g>
			<path fill="#3E6668" d="M86.98,133.15H74.84c-4.46,0-8.1,3.63-8.1,8.1v12.14c0,4.47,3.63,8.1,8.1,8.1h12.14
				c4.46,0,8.1-3.63,8.1-8.1v-12.14C95.08,136.78,91.44,133.15,86.98,133.15z M89.09,153.39c0,1.16-0.95,2.11-2.11,2.11H74.84
				c-1.14,0-2.11-0.97-2.11-2.11v-12.14c0-1.14,0.97-2.11,2.11-2.11h12.14c1.16,0,2.11,0.95,2.11,2.11V153.39z"/>
		</g>
		<g>
			<path fill="#3E6668" d="M159.49,119.44V46.17c0-10.56-8.59-19.15-19.15-19.15h-7.53V15.7c0-6.52-5.31-11.83-11.83-11.83h-7.89
				c-6.52,0-11.83,5.31-11.83,11.83v11.32H62.88V15.7c0-6.52-5.31-11.83-11.83-11.83h-7.89c-6.52,0-11.83,5.31-11.83,11.83v11.32
				H19.71c-10.56,0-19.15,8.59-19.15,19.15v119.68c0,10.56,8.59,19.15,19.15,19.15h123.02v0c4.36,2,9.21,3.13,14.31,3.13
				c18.97,0,34.39-15.43,34.39-34.4C191.44,135.59,177.32,120.7,159.49,119.44z M110.84,15.7c0-1.22,1.03-2.25,2.25-2.25h7.89
				c1.22,0,2.25,1.03,2.25,2.25v31.54c0,1.22-1.03,2.25-2.25,2.25h-7.89c-1.22,0-2.25-1.03-2.25-2.25V15.7z M40.92,15.7
				c0-1.22,1.03-2.25,2.25-2.25h7.89c1.22,0,2.25,1.03,2.25,2.25v31.54c0,1.22-1.03,2.25-2.25,2.25h-7.89
				c-1.22,0-2.25-1.03-2.25-2.25V15.7z M19.71,36.6h11.63v10.65c0,6.52,5.31,11.83,11.83,11.83h7.89c6.52,0,11.83-5.31,11.83-11.83
				V36.6h38.37v10.65c0,6.52,5.31,11.83,11.83,11.83h7.89c6.52,0,11.83-5.31,11.83-11.83V36.6h7.53c5.28,0,9.58,4.3,9.58,9.58v23.95
				H10.13V46.17C10.13,40.89,14.43,36.6,19.71,36.6z M10.13,165.85V82.1h139.78v37.99c-8.29,1.76-15.49,6.5-20.41,13.06h-10.45
				c-4.46,0-8.1,3.63-8.1,8.1v12.14c0,4.47,3.63,8.1,8.1,8.1h4.48c1.2,5.19,3.57,9.94,6.83,13.94H19.71
				C14.43,175.43,10.13,171.13,10.13,165.85z M122.7,155.5h-3.64c-1.16,0-2.11-0.95-2.11-2.11v-12.14c0-1.16,0.95-2.11,2.11-2.11
				h6.85c-2.09,4.43-3.26,9.38-3.26,14.6C122.65,154.33,122.67,154.92,122.7,155.5z M157.05,179.75c-5.29,0-10.2-1.59-14.31-4.31
				v-0.02h-0.03c-7.03-4.66-11.67-12.64-11.67-21.69c0-14.35,11.67-26.02,26.02-26.02c14.34,0,26.02,11.67,26.02,26.02
				S171.39,179.75,157.05,179.75z"/>
		</g>
		<g>
			<path fill="#3E6668" d="M170.87,159.9l-11.72-6.76v-10.2c0-1.98-1.61-3.59-3.59-3.59c-1.98,0-3.59,1.61-3.59,3.59v12.14
				c0,0.9,0.34,1.7,0.88,2.33c0.29,0.41,0.66,0.76,1.12,1.03l13.3,7.68c0.57,0.33,1.18,0.48,1.79,0.48c1.24,0,2.45-0.64,3.11-1.8
				C173.18,163.09,172.59,160.89,170.87,159.9z"/>
		</g>
	</g>
</g>
<g id="包裹取物" display="none">
	<g display="inline">
		<g>
			<path fill="#3E6668" d="M186.81,47.33c-0.01-0.04-0.02-0.08-0.03-0.12c-0.1-0.38-0.25-0.74-0.44-1.08
				c-0.03-0.05-0.05-0.11-0.08-0.16c-0.19-0.33-0.42-0.64-0.68-0.92c-0.05-0.05-0.09-0.1-0.14-0.15c-0.27-0.27-0.57-0.51-0.89-0.72
				c-0.02-0.02-0.04-0.04-0.07-0.06c-0.04-0.02-0.08-0.03-0.11-0.05c-0.1-0.06-0.2-0.13-0.31-0.18L98.32,1.31
				c-1.46-0.73-3.19-0.73-4.65,0L7.93,43.88c-0.11,0.06-0.22,0.13-0.32,0.19c-0.03,0.02-0.07,0.03-0.11,0.05
				c-0.02,0.01-0.04,0.04-0.06,0.05c-0.33,0.21-0.63,0.46-0.9,0.73C6.5,44.95,6.45,45,6.41,45.04c-0.26,0.28-0.48,0.59-0.67,0.92
				c-0.03,0.05-0.06,0.11-0.08,0.16c-0.18,0.34-0.33,0.7-0.43,1.08c-0.01,0.04-0.02,0.08-0.03,0.13c-0.1,0.4-0.16,0.81-0.16,1.24
				v94.87c0,1.99,1.13,3.8,2.9,4.68l85.74,42.57c0.2,0.1,0.41,0.15,0.62,0.22c0.13,0.05,0.26,0.11,0.4,0.14
				c0.43,0.11,0.87,0.18,1.32,0.18s0.88-0.07,1.32-0.18c0.14-0.04,0.26-0.1,0.4-0.14c0.21-0.07,0.42-0.12,0.62-0.22l85.74-42.57
				c1.78-0.88,2.9-2.7,2.9-4.68V48.57C186.97,48.14,186.91,47.73,186.81,47.33z M125.47,70.67L51.49,33.93l18.03-8.95l73.98,36.73
				L125.47,70.67z M43.65,37.83l73.98,36.73L96,85.3L22.02,48.57L43.65,37.83z M131.18,79.77l18.79-9.42v23.24l-10.05-3.15
				c-1.38-0.44-2.89,0.03-3.78,1.17l-4.95,6.3V79.77z M96,11.83l73.98,36.73l-18.65,9.26L77.35,21.09L96,11.83z M15.49,57
				L84.4,91.22l6.37,3.16v83.19l-75.28-37.38V57z M176.51,140.19l-75.28,37.38V94.41l22.98-11.22v24.8c0,1.49,0.94,2.81,2.35,3.29
				c0.37,0.13,0.76,0.19,1.14,0.19c1.05,0,2.07-0.47,2.74-1.33l9.69-12.33l12.29,3.85c1.05,0.33,2.21,0.14,3.1-0.52
				c0.9-0.66,1.42-1.7,1.42-2.81V66.85l19.57-9.81V140.19z"/>
		</g>
		<g>
			<path fill="#3E6668" d="M42.25,138.07l-14.87-7.38c-1.73-0.86-3.82-0.15-4.67,1.57c-0.86,1.72-0.15,3.82,1.57,4.67l14.87,7.38
				c0.5,0.25,1.03,0.36,1.55,0.36c1.28,0,2.52-0.71,3.13-1.94C44.68,141.02,43.98,138.92,42.25,138.07z"/>
		</g>
		<g>
			<path fill="#3E6668" d="M51.91,129.2l-24.53-12.18c-1.73-0.86-3.82-0.15-4.67,1.57c-0.86,1.72-0.15,3.82,1.57,4.67l24.53,12.18
				c0.5,0.25,1.03,0.36,1.55,0.36c1.28,0,2.52-0.71,3.13-1.94C54.34,132.15,53.64,130.06,51.91,129.2z"/>
		</g>
		<g>
			<polygon fill="#3E6668" points="110.57,162.78 127.69,154.28 127.69,141.72 110.57,150.22 			"/>
		</g>
	</g>
</g>
<g id="瓦斯抄表" display="none">
	<g display="inline">
		<g>
			<path fill="#3E6668" d="M139.65,43.04h-87.3c-5.64,0-10.22,4.59-10.22,10.22v19.01c0,5.64,4.59,10.22,10.22,10.22h87.3
				c5.64,0,10.22-4.59,10.22-10.22V53.27C149.87,47.63,145.29,43.04,139.65,43.04z M143.62,72.27c0,2.19-1.78,3.97-3.97,3.97h-87.3
				c-2.19,0-3.97-1.78-3.97-3.97V53.27c0-2.19,1.78-3.97,3.97-3.97h87.3c2.19,0,3.97,1.78,3.97,3.97V72.27z"/>
		</g>
		<g>
			<path fill="#3E6668" d="M73.24,55.64H62.1c-0.86,0-1.56,0.7-1.56,1.56v11.14c0,0.86,0.7,1.56,1.56,1.56h11.14
				c0.86,0,1.56-0.7,1.56-1.56V57.2C74.8,56.34,74.1,55.64,73.24,55.64z M71.67,66.77h-8.01v-8.01h8.01V66.77z"/>
		</g>
		<g>
			<path fill="#3E6668" d="M102.37,55.64H91.23c-0.86,0-1.56,0.7-1.56,1.56v11.14c0,0.86,0.7,1.56,1.56,1.56h11.14
				c0.86,0,1.56-0.7,1.56-1.56V57.2C103.93,56.34,103.23,55.64,102.37,55.64z M100.81,66.77h-8.01v-8.01h8.01V66.77z"/>
		</g>
		<g>
			<path fill="#3E6668" d="M129.9,55.64h-11.14c-0.86,0-1.56,0.7-1.56,1.56v11.14c0,0.86,0.7,1.56,1.56,1.56h11.14
				c0.86,0,1.56-0.7,1.56-1.56V57.2C131.46,56.34,130.76,55.64,129.9,55.64z M128.34,66.77h-8.01v-8.01h8.01V66.77z"/>
		</g>
		<g>
			<path fill="#3E6668" d="M165.94,95.05V35.4c0-0.59-0.05-1.16-0.12-1.73c0.07-0.3,0.12-0.61,0.12-0.93V11.9
				c0-5.88-4.26-10.66-9.49-10.66h-13.33c-5.23,0-9.49,4.78-9.49,10.66v10.8H58.37V11.9c0-5.88-4.26-10.66-9.49-10.66H35.55
				c-5.23,0-9.49,4.78-9.49,10.66v20.84c0,0.32,0.05,0.63,0.12,0.93c-0.07,0.57-0.12,1.14-0.12,1.73v59.65
				c-6.56,0.22-11.84,5.61-11.84,12.23v2.24c0,6.61,5.28,12.01,11.84,12.23v22.32c0,25.75,20.95,46.7,46.7,46.7h46.48
				c25.75,0,46.7-20.95,46.7-46.7v-22.32c6.56-0.22,11.84-5.61,11.84-12.23v-2.24C177.78,100.66,172.5,95.27,165.94,95.05z
				 M33.87,35.4c0-2.7,1.87-4.89,4.16-4.89h115.93c2.3,0,4.16,2.19,4.16,4.89v59.63H33.87V35.4z M141.44,11.9
				c0-1.74,0.99-2.85,1.68-2.85h13.33c0.68,0,1.68,1.11,1.68,2.85v11.61c-1.3-0.51-2.7-0.81-4.16-0.81h-12.52V11.9z M35.55,9.05
				h13.33c0.68,0,1.68,1.11,1.68,2.85v10.8H38.04c-1.47,0-2.87,0.29-4.16,0.81V11.9C33.87,10.16,34.86,9.05,35.55,9.05z
				 M119.24,182.95H72.76c-21.44,0-38.89-17.45-38.89-38.89v-22.3h16.22v17.05c0,19.37,13.84,35.13,30.85,35.13h30.12
				c17.01,0,30.85-15.76,30.85-35.13v-17.05h16.22v22.3C158.13,165.51,140.68,182.95,119.24,182.95z M56.34,121.76h79.32v17.05
				c0,15.92-11.04,28.88-24.6,28.88H80.94c-13.57,0-24.6-12.95-24.6-28.88V121.76z M169.97,109.52c0,2.45-1.99,4.44-4.44,4.44H26.47
				c-2.45,0-4.44-1.99-4.44-4.44v-2.24c0-2.45,1.99-4.44,4.44-4.44h139.06c2.45,0,4.44,1.99,4.44,4.44V109.52z"/>
		</g>
		<g>
			<path fill="#3E6668" d="M78.98,157.37h35.64c4.25,0,7.71-3.46,7.71-7.71V139c0-4.25-3.46-7.71-7.71-7.71H78.98
				c-4.25,0-7.71,3.46-7.71,7.71v10.66C71.27,153.91,74.73,157.37,78.98,157.37z M75.96,139c0-1.67,1.36-3.02,3.02-3.02h35.64
				c1.67,0,3.02,1.36,3.02,3.02v10.66c0,1.67-1.36,3.02-3.02,3.02H78.98c-1.67,0-3.02-1.36-3.02-3.02V139z"/>
		</g>
	</g>
</g>
<g id="訪客資訊" display="none">
	<g display="inline">
		<g>
			<path fill="#3E6668" d="M152.44,128.73h-11.8c-1.71,0-3.09,1.38-3.09,3.09v26.29c0,1.71,1.38,3.09,3.09,3.09h11.8
				c1.71,0,3.09-1.38,3.09-3.09v-26.29C155.53,130.11,154.14,128.73,152.44,128.73z M149.35,155.02h-5.62v-20.11h5.62V155.02z"/>
		</g>
		<g>
			<path fill="#3E6668" d="M141.56,126.53h9.95c1.71,0,3.09-1.38,3.09-3.09v-9.31c0-1.71-1.38-3.09-3.09-3.09h-9.95
				c-1.71,0-3.09,1.38-3.09,3.09v9.31C138.48,125.15,139.86,126.53,141.56,126.53z M144.65,117.22h3.77v3.13h-3.77V117.22z"/>
		</g>
		<g>
			<path fill="#3E6668" d="M146.54,91.07c-10.54,0-20.23,3.65-27.91,9.73c-2.63-2.56-5.39-4.89-8.26-6.98
				c8.07-8.82,13.01-20.56,13.01-33.43c0-27.33-22.23-49.56-49.56-49.56S24.25,33.07,24.25,60.39c0,12.87,4.93,24.6,13,33.42
				c-20.98,15.22-34.9,42.75-36.81,73.69c-0.22,3.54,1.04,7.04,3.46,9.61c2.4,2.55,5.78,4.01,9.28,4.01h128.06
				c0.45,0,0.89-0.06,1.32-0.15c1.32,0.12,2.64,0.19,3.99,0.19c24.84,0,45.05-20.21,45.05-45.05S171.38,91.07,146.54,91.07z
				 M73.81,23.19c20.52,0,37.21,16.69,37.21,37.21S94.32,97.6,73.81,97.6S36.6,80.91,36.6,60.39S53.29,23.19,73.81,23.19z
				 M13.17,168.77c-0.05,0-0.16,0-0.28-0.12c-0.1-0.1-0.14-0.23-0.13-0.38c1.77-28.58,14.84-53.62,34.31-66.18
				c7.72,4.97,16.89,7.86,26.73,7.86c9.84,0,19.01-2.89,26.73-7.86c3.34,2.16,6.53,4.7,9.53,7.63c-5.39,7.42-8.57,16.54-8.57,26.39
				c0,12.84,5.41,24.44,14.07,32.66H13.17z M146.54,168.81c-18.03,0-32.69-14.67-32.69-32.69s14.67-32.69,32.69-32.69
				s32.69,14.67,32.69,32.69S164.57,168.81,146.54,168.81z"/>
		</g>
	</g>
</g>
<g id="社區點數" display="none">
	<g display="inline">
		<g>
			<path fill="#3E6668" d="M150.95,147.91c-1.47-2.54-3.28-4.77-5.36-6.6c1.83-2.61,2.9-5.79,2.9-9.21c0-8.9-7.24-16.14-16.14-16.14
				s-16.14,7.24-16.14,16.14c0,3.42,1.08,6.59,2.9,9.2c-1.25,1.09-2.4,2.34-3.45,3.72c-1.15-1.31-2.4-2.5-3.72-3.58
				c2.7-3.45,4.33-7.77,4.33-12.48c0-11.18-9.09-20.27-20.27-20.27c-10.72,0-19.5,8.37-20.21,18.91
				c-1.95-6.72-8.15-11.64-15.49-11.64c-8.9,0-16.14,7.24-16.14,16.14c0,3.42,1.08,6.59,2.9,9.21c-2.05,1.8-3.83,3.98-5.29,6.47
				c-25.71,4.31-38.76,10.91-38.76,19.62c0,18.71,60.82,23.66,92.98,23.66s92.98-4.94,92.98-23.66
				C188.98,158.78,176.17,152.23,150.95,147.91z M132.35,123.53c4.73,0,8.57,3.85,8.57,8.57c0,4.73-3.85,8.57-8.57,8.57
				c-4.73,0-8.57-3.85-8.57-8.57C123.78,127.38,127.62,123.53,132.35,123.53z M124.84,146.38c2.24,1.19,4.8,1.86,7.51,1.86
				c2.71,0,5.26-0.68,7.5-1.86c4.04,3.1,6.85,8.44,7.67,14.56h-23.61c-0.87-3.29-2.09-6.39-3.63-9.24
				C121.54,149.54,123.09,147.73,124.84,146.38z M52.8,146.38c2.24,1.18,4.79,1.86,7.5,1.86c2.7,0,5.25-0.68,7.49-1.85
				c1.6,1.23,3.02,2.85,4.22,4.77c-1.68,2.99-3.01,6.29-3.93,9.79H45.14C45.96,154.82,48.76,149.48,52.8,146.38z M76.69,144.63
				c-0.97-1.22-2.02-2.33-3.15-3.32c1.51-2.16,2.5-4.7,2.8-7.46c0.7,2.81,1.97,5.38,3.71,7.59
				C78.87,142.41,77.74,143.47,76.69,144.63z M85.88,146.51c2.98,1.73,6.43,2.73,10.12,2.73c3.69,0,7.14-1.01,10.12-2.73
				c6.33,4.49,10.63,12.8,11.54,22.22H74.34C75.25,159.3,79.54,151,85.88,146.51z M96,116.26c7.01,0,12.71,5.7,12.71,12.71
				c0,7.01-5.7,12.71-12.71,12.71s-12.71-5.7-12.71-12.71C83.29,121.96,88.99,116.26,96,116.26z M60.31,123.53
				c4.73,0,8.57,3.85,8.57,8.57c0,4.73-3.85,8.57-8.57,8.57c-4.73,0-8.57-3.85-8.57-8.57C51.73,127.38,55.58,123.53,60.31,123.53z
				 M158.25,177.76c-16.58,3.7-38.69,5.73-62.25,5.73s-45.66-2.03-62.25-5.73c-18.91-4.21-23.16-9.01-23.16-10.36
				c0-2.06,6.94-7.29,27.82-11.32c-0.7,2.76-1.09,5.67-1.09,8.65c0,2.09,1.69,3.78,3.78,3.78h25.68c-0.12,1.32-0.19,2.65-0.19,4
				c0,2.09,1.69,3.78,3.78,3.78h51.26c2.09,0,3.78-1.69,3.78-3.78c0-1.35-0.08-2.68-0.19-4h26.34c2.09,0,3.78-1.69,3.78-3.78
				c0-2.93-0.37-5.8-1.06-8.52c20.35,4.01,27.13,9.16,27.13,11.19C181.41,168.75,177.16,173.55,158.25,177.76z"/>
		</g>
		<g>
			<path fill="#3E6668" d="M81.61,90.42l10.47,14.94c0.9,1.28,2.36,2.04,3.92,2.04s3.02-0.76,3.92-2.04l10.47-14.94
				c18.89-6.22,31.5-23.6,31.5-43.59c0-12.59-5-24.33-14.07-33.07C118.75,5.04,106.8,0.5,94.2,0.97
				C70.47,1.88,51.11,21.18,50.15,44.92C49.31,65.46,62.2,84.02,81.61,90.42z M94.43,7.02c0.53-0.02,1.05-0.03,1.58-0.03
				c10.36,0,20.12,3.92,27.61,11.13c7.88,7.58,12.22,17.78,12.22,28.71c0,17.66-11.34,32.98-28.22,38.12
				c-0.65,0.2-1.21,0.6-1.6,1.16L96,100.4l-10.02-14.3c-0.39-0.55-0.95-0.96-1.6-1.16c-17.34-5.28-28.93-21.64-28.19-39.79
				C57.03,24.56,73.83,7.81,94.43,7.02z"/>
		</g>
		<g>
			<path fill="#3E6668" d="M96.77,83.93c20.39,0,36.97-16.59,36.97-36.97S117.16,9.99,96.77,9.99S59.8,26.57,59.8,46.96
				S76.38,83.93,96.77,83.93z M96.77,14.53c17.88,0,32.43,14.55,32.43,32.43s-14.55,32.43-32.43,32.43S64.34,64.84,64.34,46.96
				S78.88,14.53,96.77,14.53z"/>
		</g>
		<g>
			<path fill="#3E6668" d="M76.87,62.53c-0.45,2.6,0.27,5.24,1.96,7.25c1.71,2.03,4.2,3.19,6.83,3.19c1.43,0,2.87-0.36,4.15-1.03
				l6.95-3.65l6.95,3.65c1.28,0.67,2.72,1.03,4.15,1.03c2.63,0,5.12-1.16,6.83-3.19c1.69-2.01,2.41-4.65,1.96-7.25l-1.33-7.74
				l5.62-5.48c2.45-2.39,3.32-5.89,2.26-9.15c-1.06-3.25-3.82-5.58-7.2-6.07l-7.77-1.13l-3.48-7.04c-1.51-3.07-4.58-4.97-8-4.97
				c-3.42,0-6.49,1.91-8,4.97l-3.48,7.04l-7.77,1.13c-3.39,0.49-6.15,2.82-7.2,6.07c-1.06,3.25-0.19,6.76,2.26,9.15l5.62,5.48
				L76.87,62.53z M76.8,44.98c-1.7-1.66-0.76-4.55,1.59-4.9l9.43-1.37c0.93-0.14,1.74-0.72,2.16-1.57l4.22-8.54
				c0.53-1.07,1.55-1.6,2.57-1.6c1.02,0,2.05,0.53,2.57,1.6l4.22,8.54c0.42,0.85,1.23,1.43,2.16,1.57l9.43,1.37
				c2.35,0.34,3.29,3.23,1.59,4.9l-6.82,6.65c-0.68,0.66-0.99,1.61-0.83,2.54l1.61,9.39c0.32,1.85-1.16,3.36-2.83,3.36
				c-0.44,0-0.9-0.1-1.34-0.34l-8.43-4.43c-0.42-0.22-0.88-0.33-1.34-0.33c-0.46,0-0.92,0.11-1.34,0.33L87,66.58
				c-0.44,0.23-0.89,0.34-1.34,0.34c-1.67,0-3.15-1.51-2.83-3.36l1.61-9.39c0.16-0.93-0.15-1.88-0.83-2.54L76.8,44.98z"/>
		</g>
	</g>
</g>
<g id="管理費" display="none">
	<g display="inline">
		<path fill="#3E6668" d="M24.42,45.29c3.03,1.85,6.55,2.17,9.65,2.45c2.72,0.25,5.28,0.48,6.94,1.65c1.1,0.78,1.1,1.44,1.03,1.68
			c-0.39,0.98-2.98,2.89-7.47,3.11c-4.45,0.24-8.21-1.39-9.14-3.01c-0.81-1.4-2.6-1.88-3.99-1.07c-1.4,0.81-1.88,2.6-1.07,3.99
			c1.76,3.05,5.78,5.16,10.56,5.76l0,0.06c0,1.61,1.31,2.92,2.92,2.92c0,0,0,0,0.01,0c1.61,0,2.92-1.32,2.92-2.93l0-0.07
			c5.18-0.72,9.37-3.24,10.71-6.59c0.75-1.86,0.94-5.78-3.08-8.63c-2.94-2.09-6.43-2.4-9.8-2.71c-2.71-0.24-5.27-0.48-7.13-1.61
			c-1.2-0.73-1.81-1.64-1.88-2.22c-0.02-0.14-0.06-0.47,0.43-0.97c1.12-1.15,4.09-2.3,7.61-2.3c0.02,0,0.03,0,0.05,0
			c4.2,0.01,7.58,1.67,8.41,3.27c0.75,1.43,2.52,1.98,3.95,1.23c1.43-0.75,1.98-2.52,1.23-3.95c-1.66-3.16-5.73-5.45-10.56-6.15
			l0-0.43c0-1.61-1.31-2.92-2.92-2.92c0,0,0,0-0.01,0c-1.61,0-2.92,1.32-2.92,2.93l0,0.36c-3.73,0.47-7.05,1.85-9.02,3.87
			c-1.59,1.62-2.32,3.68-2.06,5.78C20.1,41.32,21.79,43.68,24.42,45.29z"/>
		<path fill="#3E6668" d="M68.43,61.42C68.43,61.42,68.43,61.42,68.43,61.42l59.72-0.12c1.62,0,2.92-1.31,2.92-2.93
			c0-1.61-1.31-2.92-2.92-2.92c0,0,0,0-0.01,0l-59.71,0.12c-1.62,0-2.92,1.31-2.92,2.93C65.51,60.11,66.82,61.42,68.43,61.42z"/>
		<path fill="#3E6668" d="M52.56,75.91C52.56,75.91,52.55,75.91,52.56,75.91l-32.61,0.07c-1.62,0-2.92,1.31-2.92,2.93
			c0,1.61,1.31,2.92,2.92,2.92c0,0,0,0,0.01,0l32.6-0.07c1.62,0,2.92-1.31,2.92-2.93C55.48,77.21,54.17,75.91,52.56,75.91z"/>
		<path fill="#3E6668" d="M171.4,67.86h-23.94l-0.06-31.02c0-1.03-0.44-2-1.19-2.7L117.95,8.41l-0.96-0.96
			c-0.38-0.38-0.85-0.63-1.34-0.81c-0.03-0.01-0.05-0.02-0.08-0.03c-0.2-0.07-0.4-0.14-0.61-0.17c-0.22-0.04-0.44-0.06-0.66-0.06
			c0,0-0.01,0-0.01,0L10.47,6.59c-5.49,0.01-9.95,4.25-9.94,9.44l0.33,160.19c0.01,2.58,1.09,4.98,3.05,6.77
			c1.86,1.7,4.32,2.63,6.91,2.63c0.01,0,0.01,0,0.02,0l126.9-0.26c0.21,0,0.41-0.02,0.62-0.03h33.04c11.07,0,20.07-9,20.07-20.07
			V87.92C191.47,76.86,182.47,67.86,171.4,67.86z M135.08,35.91c-9.67,0.13-14.92,0.06-16.62-0.05c-0.08-2.13-0.2-8.28-0.3-16.9
			L135.08,35.91z M67.05,81.73C67.05,81.73,67.05,81.73,67.05,81.73l28.82-0.06c-0.65,1.97-1.01,4.07-1.01,6.26v9.2L20,97.27
			c-1.62,0-2.92,1.32-2.92,2.93c0,1.61,1.31,2.92,2.92,2.92c0,0,0,0,0.01,0l74.84-0.15v62.29c0,4.89,1.77,9.38,4.69,12.87
			l-88.72,0.18c-0.74,0.06-1.47-0.26-1.99-0.73c-0.3-0.27-0.66-0.73-0.66-1.38L7.84,16.02c0-1.14,1.21-2.11,2.64-2.11l100.3-0.21
			c0.13,11.87,0.29,21.37,0.41,23.22c0.1,1.58,0.62,2.92,1.55,3.98c1.02,1.17,2.42,1.89,4.18,2.15c1.21,0.18,4.68,0.24,8.81,0.24
			c4.75,0,10.36-0.08,14.38-0.15l0.05,24.71h-25.23c-6.51,0-12.3,3.13-15.96,7.96l-31.92,0.07c-1.62,0-2.92,1.31-2.92,2.93
			C64.13,80.42,65.43,81.73,67.05,81.73z M184.16,165.26c0,7.03-5.72,12.76-12.76,12.76h-56.48c-7.03,0-12.76-5.72-12.76-12.76
			V87.92c0-7.03,5.72-12.76,12.76-12.76h56.48c7.04,0,12.76,5.72,12.76,12.76V165.26z"/>
		<path fill="#3E6668" d="M125.11,116.25h-10.93c-1.61,0-2.92,1.31-2.92,2.92v10.93c0,1.61,1.31,2.92,2.92,2.92h10.93
			c1.61,0,2.92-1.31,2.92-2.92v-10.93C128.03,117.56,126.72,116.25,125.11,116.25z M122.18,127.18h-5.08v-5.08h5.08V127.18z"/>
		<path fill="#3E6668" d="M149.34,116.25h-10.93c-1.61,0-2.92,1.31-2.92,2.92v10.93c0,1.61,1.31,2.92,2.92,2.92h10.93
			c1.61,0,2.92-1.31,2.92-2.92v-10.93C152.26,117.56,150.95,116.25,149.34,116.25z M146.41,127.18h-5.08v-5.08h5.08V127.18z"/>
		<path fill="#3E6668" d="M173.56,116.25h-10.93c-1.61,0-2.92,1.31-2.92,2.92v10.93c0,1.61,1.31,2.92,2.92,2.92h10.93
			c1.61,0,2.92-1.31,2.92-2.92v-10.93C176.49,117.56,175.18,116.25,173.56,116.25z M170.64,127.18h-5.08v-5.08h5.08V127.18z"/>
		<path fill="#3E6668" d="M125.11,137.13h-10.93c-1.61,0-2.92,1.31-2.92,2.92v10.93c0,1.61,1.31,2.92,2.92,2.92h10.93
			c1.61,0,2.92-1.31,2.92-2.92v-10.93C128.03,138.44,126.72,137.13,125.11,137.13z M122.18,148.05h-5.08v-5.08h5.08V148.05z"/>
		<path fill="#3E6668" d="M149.34,137.13h-10.93c-1.61,0-2.92,1.31-2.92,2.92v10.93c0,1.61,1.31,2.92,2.92,2.92h10.93
			c1.61,0,2.92-1.31,2.92-2.92v-10.93C152.26,138.44,150.95,137.13,149.34,137.13z M146.41,148.05h-5.08v-5.08h5.08V148.05z"/>
		<path fill="#3E6668" d="M125.11,158h-10.93c-1.61,0-2.92,1.31-2.92,2.92v10.93c0,1.61,1.31,2.92,2.92,2.92h10.93
			c1.61,0,2.92-1.31,2.92-2.92v-10.93C128.03,159.31,126.72,158,125.11,158z M122.18,168.93h-5.08v-5.08h5.08V168.93z"/>
		<path fill="#3E6668" d="M149.34,158h-10.93c-1.61,0-2.92,1.31-2.92,2.92v10.93c0,1.61,1.31,2.92,2.92,2.92h10.93
			c1.61,0,2.92-1.31,2.92-2.92v-10.93C152.26,159.31,150.95,158,149.34,158z M146.41,168.93h-5.08v-5.08h5.08V168.93z"/>
		<path fill="#3E6668" d="M173.56,137.13h-10.93c-1.61,0-2.92,1.31-2.92,2.92v31.8c0,1.61,1.31,2.92,2.92,2.92h10.93
			c1.61,0,2.92-1.31,2.92-2.92v-31.8C176.49,138.44,175.18,137.13,173.56,137.13z M170.64,168.93h-5.08v-25.95h5.08V168.93z"/>
		<path fill="#3E6668" d="M121.23,107.85h45.3c3.99,0,7.24-3.25,7.24-7.23v-8.59c0-3.99-3.25-7.23-7.24-7.23h-45.3
			c-3.99,0-7.24,3.25-7.24,7.23v8.59C113.99,104.6,117.24,107.85,121.23,107.85z M119.84,92.03c0-0.76,0.62-1.39,1.39-1.39h45.3
			c0.76,0,1.39,0.62,1.39,1.39v8.59c0,0.76-0.62,1.39-1.39,1.39h-45.3c-0.76,0-1.39-0.62-1.39-1.39V92.03z"/>
		<path fill="#3E6668" d="M24.05,149.71h2.69c0.21,0.53,0.45,1.05,0.69,1.56l-1.56,1.56c-1.68,1.68-1.68,4.42,0,6.1l6.65,6.65
			c1.68,1.68,4.42,1.68,6.1,0l1.9-1.9c0.52,0.22,1.06,0.43,1.59,0.61v2.21c0,2.38,1.94,4.31,4.32,4.31h9.4
			c2.38,0,4.32-1.94,4.32-4.31v-2.69c0.53-0.21,1.05-0.45,1.56-0.7l1.56,1.56c1.68,1.68,4.42,1.68,6.1,0l6.65-6.65
			c1.68-1.68,1.68-4.42,0-6.1l-1.9-1.9c0.22-0.52,0.42-1.06,0.61-1.59h2.21c2.38,0,4.32-1.94,4.32-4.32v-9.4
			c0-2.38-1.94-4.32-4.32-4.32h-2.69c-0.21-0.53-0.45-1.05-0.69-1.56l1.56-1.56c1.68-1.68,1.68-4.42,0-6.1l-6.65-6.65
			c-1.68-1.68-4.42-1.68-6.1,0l-1.9,1.9c-0.52-0.22-1.05-0.42-1.59-0.61v-2.21c0-2.38-1.94-4.32-4.32-4.32h-9.4
			c-2.38,0-4.32,1.94-4.32,4.32v2.69c-0.53,0.21-1.05,0.45-1.56,0.7l-1.56-1.56c-1.68-1.68-4.42-1.68-6.1,0l-6.65,6.65
			c-1.68,1.68-1.68,4.42,0,6.1l1.9,1.9c-0.22,0.52-0.42,1.06-0.61,1.59h-2.21c-2.38,0-4.32,1.94-4.32,4.31v9.4
			C19.73,147.77,21.67,149.71,24.05,149.71z M25.58,137.52h2.86c1.35,0,2.52-0.92,2.84-2.22c0.38-1.55,0.95-3.05,1.7-4.46
			c0.6-1.13,0.39-2.53-0.52-3.43l-2.27-2.27l4.48-4.48l2.02,2.02c0.95,0.95,2.43,1.13,3.58,0.43c1.37-0.83,2.83-1.48,4.36-1.96
			c1.22-0.38,2.06-1.51,2.06-2.79v-3.21h6.34V118c0,1.35,0.92,2.52,2.23,2.84c1.55,0.38,3.05,0.95,4.46,1.7
			c1.13,0.6,2.53,0.39,3.43-0.52l2.27-2.27l4.48,4.48l-2.02,2.02c-0.95,0.95-1.13,2.43-0.43,3.58c0.83,1.37,1.48,2.83,1.96,4.36
			c0.38,1.22,1.51,2.06,2.79,2.06h3.21v6.34h-2.86c-1.34,0-2.52,0.92-2.84,2.22c-0.38,1.55-0.95,3.05-1.7,4.46
			c-0.6,1.13-0.39,2.52,0.52,3.43l2.27,2.27l-4.48,4.48l-2.02-2.02c-0.95-0.95-2.43-1.13-3.58-0.43c-1.37,0.83-2.83,1.48-4.36,1.96
			c-1.22,0.38-2.06,1.51-2.06,2.79v3.21h-6.34v-2.86c0-1.35-0.92-2.52-2.23-2.84c-1.55-0.38-3.05-0.95-4.46-1.7
			c-1.13-0.6-2.53-0.39-3.43,0.52l-2.27,2.27l-4.48-4.48l2.02-2.02c0.95-0.95,1.13-2.43,0.43-3.58c-0.83-1.37-1.49-2.83-1.96-4.36
			c-0.38-1.22-1.51-2.06-2.79-2.06h-3.21V137.52z"/>
		<path fill="#3E6668" d="M50.49,153.64c7.49,0,13.59-6.1,13.59-13.59s-6.1-13.59-13.59-13.59s-13.59,6.1-13.59,13.59
			S43,153.64,50.49,153.64z M50.49,132.31c4.27,0,7.74,3.47,7.74,7.74c0,4.27-3.47,7.74-7.74,7.74s-7.74-3.47-7.74-7.74
			C42.75,135.78,46.22,132.31,50.49,132.31z"/>
	</g>
</g>
<g id="線上投票" display="none">
	<g display="inline">
		<g>
			<path fill="#3E6668" d="M176.42,12.02H15.58C7.54,12.02,1,18.56,1,26.6v103c0,8.04,6.54,14.58,14.58,14.58h51.44l-3.65,12.5
				H50.02c-5.37,0-9.73,4.37-9.73,9.73v8.03c0,3.05,2.48,5.53,5.53,5.53h98.95c3.05,0,5.53-2.48,5.53-5.53v-8.03
				c0-5.36-4.36-9.73-9.73-9.73h-13.35l-3.65-12.5h52.86c8.04,0,14.58-6.54,14.58-14.58v-103C191,18.56,184.46,12.02,176.42,12.02z
				 M143.81,166.41v7.08H46.77v-7.08c0-1.79,1.45-3.24,3.24-3.24h90.55C142.36,163.17,143.81,164.62,143.81,166.41z M120.46,156.68
				H70.13l3.65-12.5h43.03L120.46,156.68z M184.51,129.6c0,4.46-3.63,8.09-8.09,8.09h-57.18H71.61H15.58
				c-4.46,0-8.09-3.63-8.09-8.09v-103c0-4.46,3.63-8.09,8.09-8.09h160.85c4.46,0,8.09,3.63,8.09,8.09V129.6z"/>
			<path fill="#3E6668" d="M142.78,86.06c14.13,0,25.62-11.49,25.62-25.62s-11.49-25.62-25.62-25.62s-25.62,11.49-25.62,25.62
				S128.66,86.06,142.78,86.06z M142.78,41.3c10.55,0,19.13,8.58,19.13,19.13c0,10.55-8.58,19.13-19.13,19.13
				s-19.13-8.58-19.13-19.13C123.65,49.89,132.23,41.3,142.78,41.3z"/>
			<path fill="#3E6668" d="M82.5,103.91H23.01c-1.79,0-3.24,1.45-3.24,3.24v9.45c0,1.79,1.45,3.24,3.24,3.24H82.5
				c1.79,0,3.24-1.45,3.24-3.24v-9.45C85.74,105.36,84.29,103.91,82.5,103.91z M26.26,110.39H66.9v2.97H26.26V110.39z M79.26,113.36
				h-5.87v-2.97h5.87V113.36z"/>
			<path fill="#3E6668" d="M172.53,103.91h-59.48c-1.79,0-3.24,1.45-3.24,3.24v9.45c0,1.79,1.45,3.24,3.24,3.24h59.48
				c1.79,0,3.24-1.45,3.24-3.24v-9.45C175.77,105.36,174.32,103.91,172.53,103.91z M116.29,110.39h8.48v2.97h-8.48V110.39z
				 M169.28,113.36h-38.03v-2.97h38.03V113.36z"/>
			<path fill="#3E6668" d="M64.08,52.03c-1.27-1.27-3.32-1.27-4.59,0l-9.94,9.93l-3.54-3.54c-1.27-1.27-3.32-1.27-4.59,0
				c-1.27,1.27-1.27,3.32,0,4.59l5.6,5.6c0.04,0.04,0.09,0.07,0.13,0.1c0.04,0.04,0.06,0.09,0.1,0.12c0.63,0.63,1.46,0.95,2.29,0.95
				c0.83,0,1.66-0.32,2.29-0.95l12.23-12.23C65.35,55.35,65.35,53.3,64.08,52.03z"/>
			<path fill="#3E6668" d="M133.92,70.04c0.63,0.63,1.46,0.95,2.29,0.95c0.83,0,1.66-0.32,2.29-0.95l5.02-5.02l5.02,5.02
				c0.63,0.63,1.46,0.95,2.29,0.95c0.83,0,1.66-0.32,2.29-0.95c1.27-1.27,1.27-3.32,0-4.59l-5.02-5.02l5.02-5.02
				c1.27-1.27,1.27-3.32,0-4.59c-1.27-1.27-3.32-1.27-4.59,0l-5.02,5.02l-5.02-5.02c-1.27-1.27-3.32-1.27-4.59,0
				c-1.27,1.27-1.27,3.32,0,4.59l5.02,5.02l-5.02,5.02C132.66,66.72,132.66,68.78,133.92,70.04z"/>
			<path fill="#3E6668" d="M80.51,76.94l1.19-0.75c1.45-0.92,2.22-2.62,1.96-4.32s-1.5-3.09-3.17-3.54l-3.1-0.83l0.09-0.33
				c0.59-2.19,0.9-4.45,0.9-6.74c0-14.13-11.49-25.62-25.62-25.62c-14.13,0-25.62,11.49-25.62,25.62s11.49,25.62,25.62,25.62
				c3.55,0,7-0.71,10.23-2.12l0.18-0.08l0.38,1.42c0.45,1.66,1.83,2.91,3.54,3.17c0.22,0.03,0.44,0.05,0.66,0.05
				c1.47,0,2.86-0.75,3.66-2.01l0.72-1.14l5.01,5.04c0.61,0.61,1.43,0.95,2.3,0.96c0,0,0,0,0,0c0.86,0,1.69-0.34,2.29-0.95
				l3.91-3.91c0.62-0.62,0.96-1.45,0.95-2.32c-0.01-0.87-0.37-1.7-0.99-2.31L80.51,76.94z M60.4,77.99
				c-2.41,1.05-4.98,1.58-7.64,1.58c-10.55,0-19.13-8.58-19.13-19.13c0-10.55,8.58-19.13,19.13-19.13
				c10.55,0,19.13,8.58,19.13,19.13c0,1.71-0.23,3.41-0.67,5.04l-0.1,0.35l-6.52-1.75c-1.49-0.4-3.1,0.03-4.19,1.12
				c-1.09,1.09-1.52,2.7-1.12,4.19l2.18,8.13L60.4,77.99z M66.52,71.31l7.57,2.03l-0.08,0.05c-0.16,0.1-0.3,0.21-0.43,0.33
				c-0.21,0.14-0.42,0.29-0.6,0.48c-0.74,0.77-1.02,1.8-0.86,2.78c-1-0.17-2.07,0.12-2.85,0.9c-0.24,0.24-0.42,0.51-0.57,0.8
				c-0.04,0.06-0.09,0.11-0.12,0.18l-0.02,0.03L66.52,71.31z"/>
		</g>
	</g>
</g>
<g id="規約辦法" display="none">
	<g display="inline">
		<path fill="#3E6668" d="M180.71,152.04h-19.62V81.47c0-0.05-0.01-0.1-0.01-0.14c13.86-7,23.4-21.36,23.4-37.92
			c0-23.41-19.05-42.46-42.46-42.46c-17.51,0-32.58,10.66-39.06,25.83H26.48v0.11c-0.66-0.07-1.33-0.11-2.01-0.11
			c-9.35,0-16.95,6.7-16.95,14.93v40.63c0,0.57,0.15,1.1,0.42,1.56c0.46,1.16,1.59,1.98,2.91,1.98h24.31v39.8
			c0,0.08,0.01,0.16,0.01,0.24c-0.01,0.08-0.01,0.16-0.01,0.24v47.88c0,8.51,6.25,15.59,14.38,16.84v0.2h106.29v-0.22
			c0.35,0.14,0.73,0.22,1.14,0.22c3.88,0,7.53-0.47,10.83-1.39c9.45-2.64,16.04-11.47,16.04-21.47v-11.4c0-0.28-0.04-0.55-0.11-0.81
			c0.07-0.26,0.11-0.53,0.11-0.81C183.84,153.44,182.44,152.04,180.71,152.04z M142.02,7.21c19.96,0,36.2,16.24,36.2,36.2
			c0,19.96-16.24,36.2-36.2,36.2s-36.2-16.24-36.2-36.2C105.82,23.44,122.06,7.21,142.02,7.21z M35.16,79.6H13.79V41.7
			c0-4.78,4.79-8.66,10.69-8.66s10.69,3.89,10.69,8.66V79.6z M41.42,174.03v-47.88c0-0.08-0.01-0.16-0.01-0.24
			c0.01-0.08,0.01-0.16,0.01-0.24V82.73V41.7c0-3.23-1.17-6.22-3.16-8.66h62.57c-0.84,3.32-1.29,6.79-1.29,10.37
			c0,23.41,19.05,42.46,42.46,42.46c4.46,0,8.76-0.7,12.8-1.98v68.15H65.93c-1.73,0-3.13,1.4-3.13,3.13c0,0.28,0.04,0.55,0.11,0.81
			c-0.07,0.26-0.11,0.53-0.11,0.81v17.23c0,5.94-4.79,10.77-10.69,10.77S41.42,179.96,41.42,174.03z M177.57,168.2
			c0,7.2-4.71,13.55-11.46,15.44c-2.75,0.77-5.83,1.16-9.14,1.16c-0.4,0-0.78,0.08-1.14,0.22v-0.22h-90.6
			c2.39-2.94,3.83-6.69,3.83-10.77V158.3h108.51V168.2z"/>
		<path fill="#3E6668" d="M118.77,65.7c0,0,0.01,0,0.01,0l18.52-0.07c0.92,0,1.77-0.36,2.42-1.01c0.64-0.65,1-1.51,0.99-2.43
			l-0.01-3.06c-0.01-1.66-1.2-3.04-2.77-3.35l-0.01-4.07l0.81,0c2.21-0.01,4.01-1.74,4.14-3.92l19.86-0.07l0,0.72
			c0,1.46,1.2,2.65,2.66,2.65c0,0,0.01,0,0.01,0l1.98-0.01c0.71,0,1.38-0.28,1.88-0.79s0.77-1.17,0.77-1.88l-0.04-11.08c0,0,0,0,0,0
			c-0.01-1.46-1.2-2.65-2.66-2.65c0,0-0.01,0-0.01,0l-1.98,0.01c-0.71,0-1.38,0.28-1.88,0.79c-0.5,0.5-0.77,1.17-0.77,1.88l0,0.72
			l-19.86,0.07c-0.15-2.17-1.95-3.89-4.15-3.89c0,0-0.01,0-0.02,0l-0.81,0l-0.01-3.52c1.52-0.1,2.72-1.36,2.71-2.9l-0.02-4.11
			c0-0.77-0.31-1.5-0.86-2.04c-0.55-0.54-1.27-0.84-2.04-0.84c0,0-0.01,0-0.01,0l-19.15,0.07c-0.77,0-1.5,0.31-2.05,0.86
			c-0.55,0.55-0.84,1.28-0.84,2.05l0.02,4.11c0,0.77,0.31,1.5,0.86,2.05c0.51,0.51,1.17,0.79,1.88,0.83l0.09,25.05
			c-1.54,0.34-2.7,1.72-2.69,3.36l0.01,3.48C115.78,64.36,117.12,65.7,118.77,65.7z M166.86,37.83l0.04,10.13l-1.03,0l-0.04-10.13
			L166.86,37.83z M162.72,42.27l0,1.28l-19.85,0.07l0-0.64l0-0.64L162.72,42.27z M138.68,38.44l0.01,2.85c0,0.02,0,0.04,0,0.06
			l0.01,3.28c0,0.04,0,0.08,0.01,0.12l0.01,2.78l-0.81,0l-0.03-9.09L138.68,38.44z M136.53,61.46l-16.59,0.06l-0.01-1.55l16.59-0.06
			L136.53,61.46z M122.53,30.83l11.13-0.04l0.09,24.95l-11.13,0.04L122.53,30.83z M136.37,25.04l0.01,1.55l-16.59,0.06l-0.01-1.55
			L136.37,25.04z"/>
		<path fill="#3E6668" d="M52.11,62.87H90.3c1.73,0,3.13-1.4,3.13-3.13c0-1.73-1.4-3.13-3.13-3.13H52.11c-1.73,0-3.13,1.4-3.13,3.13
			C48.98,61.47,50.38,62.87,52.11,62.87z"/>
		<path fill="#3E6668" d="M52.11,84.61h55.88c1.73,0,3.13-1.4,3.13-3.13s-1.4-3.13-3.13-3.13H52.11c-1.73,0-3.13,1.4-3.13,3.13
			S50.38,84.61,52.11,84.61z"/>
		<path fill="#3E6668" d="M52.11,109.17h90.63c1.73,0,3.13-1.4,3.13-3.13s-1.4-3.13-3.13-3.13H52.11c-1.73,0-3.13,1.4-3.13,3.13
			S50.38,109.17,52.11,109.17z"/>
		<path fill="#3E6668" d="M124.99,135.47c1.73,0,3.13-1.4,3.13-3.13c0-1.73-1.4-3.13-3.13-3.13H52.11c-1.73,0-3.13,1.4-3.13,3.13
			c0,1.73,1.4,3.13,3.13,3.13H124.99z"/>
	</g>
</g>
<g id="即時影像" display="none">
	<g display="inline">
		<g>
			<path fill="#3E6668" d="M173.93,10.28H18.07c-9.47,0-17.17,7.7-17.17,17.17v137.1c0,9.47,7.7,17.17,17.17,17.17h155.87
				c9.47,0,17.17-7.7,17.17-17.17V27.45C191.1,17.98,183.4,10.28,173.93,10.28z M18.07,16.99h155.87c5.77,0,10.46,4.69,10.46,10.46
				v121.93l-38.16-38.46c-0.63-0.64-1.49-0.99-2.38-0.99c-0.89,0-1.75,0.36-2.38,0.99l-35.11,35.39L57.92,87.86
				c-0.64-0.77-1.58-1.21-2.58-1.21c-1,0-1.95,0.45-2.58,1.21L7.61,142.32V27.45C7.61,21.68,12.3,16.99,18.07,16.99z M7.61,164.55
				v-11.72l47.73-57.57l66.11,79.75H18.07C12.3,175.01,7.61,170.32,7.61,164.55z M173.93,175.01h-43.92
				c-0.12-0.25-0.27-0.5-0.45-0.72l-18.9-22.8l33.19-33.45l40.54,40.86v5.65C184.39,170.32,179.7,175.01,173.93,175.01z"/>
			<path fill="#3E6668" d="M145.43,61.94h21.88c6.14,0,11.14-4.41,11.14-9.83c0-5.05-4.33-9.22-9.89-9.77
				c0.01-0.14,0.02-0.27,0.02-0.41c0-5.91-5.48-10.73-12.21-10.73s-12.21,4.81-12.21,10.73c0,0.14,0.01,0.27,0.02,0.41
				c-5.55,0.55-9.89,4.72-9.89,9.77C134.29,57.53,139.29,61.94,145.43,61.94z M145.43,48.99h1.79c1.26,1,3.09,0.98,4.33-0.14
				c1.37-1.24,1.48-3.36,0.24-4.74c-0.41-0.46-0.91-1.21-0.91-2.18c0-2.18,2.52-4.02,5.5-4.02c2.98,0,5.5,1.84,5.5,4.02
				c0,0.97-0.5,1.73-0.92,2.19c-1.25,1.37-1.14,3.49,0.23,4.74c0.64,0.58,1.45,0.87,2.25,0.87c0.75,0,1.49-0.25,2.1-0.74h1.77
				c2.36,0,4.43,1.46,4.43,3.12s-2.07,3.12-4.43,3.12h-21.88c-2.36,0-4.43-1.46-4.43-3.12S143.07,48.99,145.43,48.99z"/>
			<path fill="#3E6668" d="M101.27,91.25h21.88c6.14,0,11.14-4.41,11.14-9.83c0-5.05-4.33-9.22-9.89-9.77
				c0.01-0.14,0.02-0.27,0.02-0.41c0-5.91-5.48-10.73-12.21-10.73S100,65.32,100,71.24c0,0.14,0.01,0.27,0.02,0.41
				c-5.55,0.55-9.89,4.72-9.89,9.77C90.13,86.84,95.13,91.25,101.27,91.25z M101.27,78.29h1.79c1.26,1,3.09,0.98,4.33-0.13
				c1.37-1.24,1.48-3.36,0.24-4.74c-0.42-0.46-0.91-1.21-0.91-2.18c0-2.18,2.52-4.02,5.5-4.02s5.5,1.84,5.5,4.02
				c0,0.97-0.5,1.73-0.92,2.19c-1.25,1.37-1.14,3.49,0.23,4.74c0.64,0.58,1.45,0.87,2.25,0.87c0.75,0,1.49-0.25,2.1-0.74h1.77
				c2.36,0,4.43,1.46,4.43,3.12c0,1.66-2.07,3.12-4.43,3.12h-21.88c-2.36,0-4.43-1.46-4.43-3.12
				C96.84,79.75,98.91,78.29,101.27,78.29z"/>
			<path fill="#3E6668" d="M45.31,79.37c15.35,0,27.83-12.48,27.83-27.83S60.66,23.71,45.31,23.71S17.48,36.19,17.48,51.54
				S29.97,79.37,45.31,79.37z M45.31,30.42c11.65,0,21.12,9.47,21.12,21.12s-9.47,21.12-21.12,21.12s-21.12-9.47-21.12-21.12
				S33.66,30.42,45.31,30.42z"/>
			<path fill="#3E6668" d="M36.73,65.84c1.1,0.64,2.31,0.95,3.51,0.95c1.21,0,2.41-0.32,3.51-0.95l14.22-8.21
				c2.2-1.27,3.51-3.55,3.51-6.09c0-2.54-1.31-4.82-3.51-6.09l-14.22-8.21c-2.2-1.27-4.83-1.27-7.03,0
				c-2.2,1.27-3.51,3.55-3.51,6.09v16.43C33.22,62.29,34.53,64.57,36.73,65.84z M39.93,43.33c0-0.06,0-0.18,0.16-0.27
				C40.15,43.01,40.2,43,40.25,43c0.07,0,0.12,0.03,0.16,0.05l14.22,8.21c0.05,0.03,0.16,0.09,0.16,0.27c0,0.18-0.11,0.25-0.16,0.27
				L40.4,60.02c-0.05,0.03-0.16,0.09-0.32,0c-0.16-0.09-0.16-0.22-0.16-0.27V43.33z"/>
		</g>
	</g>
</g>
<g id="選單" display="none">
	<g display="inline">
		<g>
			<path fill="#33A6B8" d="M181.43,40.32H10.57c-5.38,0-9.75-4.36-9.75-9.75s4.36-9.75,9.75-9.75h170.86c5.38,0,9.75,4.36,9.75,9.75
				S186.81,40.32,181.43,40.32z"/>
		</g>
		<g>
			<path fill="#33A6B8" d="M122.06,105.75H10.57c-5.38,0-9.75-4.36-9.75-9.75c0-5.38,4.36-9.75,9.75-9.75h111.49
				c5.38,0,9.75,4.36,9.75,9.75C131.81,101.38,127.45,105.75,122.06,105.75z"/>
		</g>
		<g>
			<path fill="#33A6B8" d="M74.81,171.17H10.57c-5.38,0-9.75-4.36-9.75-9.75s4.36-9.75,9.75-9.75h64.24c5.38,0,9.75,4.36,9.75,9.75
				S80.2,171.17,74.81,171.17z"/>
		</g>
	</g>
</g>
<g id="生活" display="none">
	<g display="inline">
		<g>
			<path fill="#FFFFFF" d="M96,190.06c-51.86,0-94.06-42.19-94.06-94.06S44.14,1.94,96,1.94S190.06,44.14,190.06,96
				S147.86,190.06,96,190.06z M96,17.08c-43.52,0-78.92,35.4-78.92,78.92s35.4,78.92,78.92,78.92s78.92-35.4,78.92-78.92
				S139.52,17.08,96,17.08z"/>
		</g>
		<g>
			<g>
				<path fill="#FFFFFF" d="M96,156.15c-1.94,0-3.87-0.74-5.35-2.22c-2.96-2.96-2.96-7.75,0-10.71l42.82-42.82
					c3.53-3.53,5.47-8.22,5.47-13.2s-1.94-9.68-5.47-13.2c-7.28-7.28-19.13-7.28-26.41,0l-5.71,5.71c-2.96,2.96-7.75,2.96-10.71,0
					c-2.96-2.96-2.96-7.75,0-10.7l5.71-5.71c6.39-6.39,14.88-9.9,23.91-9.9c9.03,0,17.52,3.52,23.91,9.9
					c6.39,6.39,9.9,14.88,9.9,23.91s-3.52,17.52-9.9,23.91l-42.82,42.82C99.87,155.41,97.94,156.15,96,156.15z"/>
			</g>
			<g>
				<path fill="#FFFFFF" d="M96,156.15c-1.94,0-3.87-0.74-5.35-2.22l-42.82-42.82c-6.39-6.39-9.9-14.88-9.9-23.91
					s3.52-17.52,9.9-23.91c6.39-6.39,14.88-9.9,23.91-9.9s17.52,3.52,23.91,9.9l5.71,5.71c2.96,2.96,2.96,7.75,0,10.7
					c-2.96,2.96-7.75,2.96-10.71,0L84.94,74c-3.53-3.53-8.22-5.47-13.2-5.47c-4.99,0-9.68,1.94-13.2,5.47
					c-3.53,3.53-5.47,8.22-5.47,13.2s1.94,9.68,5.47,13.2l42.82,42.82c2.96,2.96,2.96,7.75,0,10.7
					C99.87,155.41,97.94,156.15,96,156.15z"/>
			</g>
		</g>
	</g>
</g>
<g id="首頁" display="none">
	<path display="inline" fill="#FFFFFF" d="M189.03,91.17l-88.23-80.63c-2.71-2.48-6.87-2.48-9.59,0L2.97,91.17
		c-4.79,4.38-1.69,12.35,4.79,12.35h4.38v74.41c0,2.98,2.41,5.39,5.39,5.39h54.14v-24.64c0-13.37,10.94-24.31,24.31-24.31
		s24.31,10.94,24.31,24.31v24.64h54.14c2.98,0,5.39-2.41,5.39-5.39v-74.41h4.38C190.72,103.52,193.81,95.55,189.03,91.17z"/>
</g>
<g id="通知" display="none">
	<g display="inline">
		<path fill="#FFFFFF" d="M147.45,111.16V85.43c0-20.8-12.42-38.75-30.22-46.85c2.16-3.66,3.42-7.92,3.42-12.47
			c0-13.59-11.06-24.65-24.65-24.65c-13.59,0-24.65,11.06-24.65,24.65c0,4.55,1.26,8.8,3.42,12.47
			c-17.81,8.1-30.22,26.05-30.22,46.85v25.73L26.9,146.04c-1.31,2.59-1.18,5.67,0.34,8.14c1.52,2.47,4.21,3.98,7.11,3.98h25.4
			c2.06,18.19,17.52,32.37,36.25,32.37s34.19-14.18,36.25-32.37h25.4c2.9,0,5.59-1.51,7.11-3.98c1.52-2.47,1.64-5.55,0.34-8.14
			L147.45,111.16z M86.19,26.12c0-5.41,4.4-9.81,9.81-9.81c5.41,0,9.81,4.4,9.81,9.81c0,3.4-1.74,6.39-4.37,8.15
			c-1.79-0.19-3.6-0.29-5.44-0.29c-1.84,0-3.65,0.1-5.44,0.29C87.93,32.51,86.19,29.52,86.19,26.12z M96,173.83
			c-9.5,0-17.46-6.73-19.36-15.67h38.73C113.46,167.1,105.5,173.83,96,173.83z M47.93,141.47l12.42-24.55
			c0.59-1.17,0.9-2.46,0.9-3.77V85.43c0-18.87,15.12-34.24,33.88-34.71c0.29,0.01,0.58,0.04,0.88,0.04c0.3,0,0.58-0.03,0.88-0.04
			c18.76,0.47,33.88,15.84,33.88,34.71v27.72c0,1.31,0.31,2.6,0.9,3.77l12.42,24.55H47.93z"/>
	</g>
</g>
<g id="個人" display="none">
	<path display="inline" fill="#FFFFFF" d="M137.52,93.5c8.71-9.81,14.02-22.71,14.02-36.83c0-30.63-24.92-55.54-55.54-55.54
		S40.46,26.03,40.46,56.66c0,14.12,5.31,27.02,14.02,36.83c-24.89,18.49-40.59,52.69-40.59,89.8c0,4.19,3.4,7.59,7.59,7.59h149.06
		c4.19,0,7.59-3.4,7.59-7.59C178.12,146.24,162.41,111.98,137.52,93.5z M96,16.29c22.26,0,40.37,18.11,40.37,40.37
		c0,22.26-18.11,40.37-40.37,40.37S55.63,78.92,55.63,56.66C55.63,34.4,73.74,16.29,96,16.29z M29.3,175.71
		c1.99-30.83,16.04-58.21,37.12-72.07c8.57,5.42,18.71,8.57,29.58,8.57c10.87,0,21.01-3.15,29.58-8.57
		c21.07,13.86,35.12,41.29,37.12,72.07H29.3z"/>
</g>
<g id="圖層_30">
	<g>
		<g>
			<path fill="#3E6668" d="M143.19,160.06c-1.56,0-2.82-1.26-2.82-2.82v-23.02c0-1.56,1.26-2.82,2.82-2.82h8.3
				c1.56,0,2.82,1.26,2.82,2.82v23.02c0,1.56-1.26,2.82-2.82,2.82H143.19z"/>
			<path fill="#3E6668" d="M144.13,124.85c-1.56,0-2.82-1.26-2.82-2.82v-5.78c0-1.56,1.26-2.82,2.82-2.82h6.43
				c1.56,0,2.82,1.26,2.82,2.82v5.78c0,1.56-1.26,2.82-2.82,2.82H144.13z"/>
			<path fill="#3E6668" d="M147.34,92.09c-10.38,0-20.42,3.63-28.43,10.25c-3.14-3.13-6.49-5.95-9.99-8.4
				c8.9-9.23,13.78-21.28,13.78-34.12c0-27.15-22.09-49.25-49.25-49.25S24.21,32.68,24.21,59.83c0,12.84,4.88,24.88,13.78,34.12
				c-21.85,15.24-36,43.03-37.97,74.76c-0.2,3.29,0.97,6.55,3.22,8.94c2.26,2.41,5.32,3.73,8.63,3.73h130.08
				c0.43,0,0.85-0.05,1.26-0.16c1.39,0.13,2.77,0.19,4.13,0.19c24.63,0,44.66-20.04,44.66-44.66S171.96,92.09,147.34,92.09z
				 M11.87,171.02c-0.42,0-0.8-0.16-1.08-0.47c-0.31-0.33-0.46-0.75-0.43-1.21c1.83-29.53,15.56-55.67,35.92-68.48
				c8.08,5.37,17.46,8.21,27.18,8.21c9.72,0,19.1-2.84,27.18-8.21c3.91,2.47,7.64,5.47,11.11,8.95c-5.86,7.73-9.07,17.24-9.07,26.94
				c0,13.29,5.94,25.81,16.06,34.27H11.87z M73.46,98.73c-21.45,0-38.89-17.45-38.89-38.89s17.45-38.89,38.89-38.89
				s38.89,17.45,38.89,38.89S94.9,98.73,73.46,98.73z M147.34,102.44c18.92,0,34.31,15.39,34.31,34.31s-15.39,34.31-34.31,34.31
				s-34.31-15.39-34.31-34.31S128.42,102.44,147.34,102.44z"/>
		</g>
	</g>
	<g>
	</g>
	<g>
	</g>
	<g>
	</g>
	<g>
	</g>
	<g>
	</g>
	<g>
	</g>
</g>
</svg>
